<?xml version="1.0" encoding="utf-8"?>
<svg xmlns="http://www.w3.org/2000/svg" viewBox="0 0 24 24" width="96" height="96">
  <path d="M7.6582031 2C6.8615365 2 6.1344998 2.4791595 5.8203125 3.2109375L3.3398438 9L2.0019531 9C1.6889531 9 1.3950781 9.1455313 1.2050781 9.3945312C1.0170781 9.6425312 0.95315625 9.964625 1.0351562 10.265625L3.5957031 19.53125C3.8347031 20.39525 4.6274375 21 5.5234375 21L18.476562 21C19.372563 21 20.164344 20.396203 20.402344 19.533203L22.962891 10.267578C23.045891 9.9665781 22.982922 9.6425312 22.794922 9.3945312C22.604922 9.1455313 22.310047 9 21.998047 9L20.660156 9L18.177734 3.2128906L18.179688 3.2128906C17.865994 2.4777169 17.13651 2 16.339844 2L7.6582031 2 z M 7.6582031 4L16.339844 4L18.482422 9L5.5175781 9L7.6582031 4 z M 8 12C8.552 12 9 12.448 9 13L9 17C9 17.552 8.552 18 8 18C7.448 18 7 17.552 7 17L7 13C7 12.448 7.448 12 8 12 z M 12 12C12.552 12 13 12.448 13 13L13 17C13 17.552 12.552 18 12 18C11.448 18 11 17.552 11 17L11 13C11 12.448 11.448 12 12 12 z M 16 12C16.552 12 17 12.448 17 13L17 17C17 17.552 16.552 18 16 18C15.448 18 15 17.552 15 17L15 13C15 12.448 15.448 12 16 12 z" fill="#FFFFFF" />
</svg>