<?xml version="1.0" encoding="utf-8"?>
<svg xmlns="http://www.w3.org/2000/svg" viewBox="0 0 24 24" width="96" height="96">
  <path d="M5 3C3.895 3 3 3.895 3 5L3 19C3 20.105 3.895 21 5 21L19 21C20.105 21 21 20.105 21 19L21 5C21 3.895 20.105 3 19 3L5 3 z M 8 7C8.25575 7 8.5115313 7.0974688 8.7070312 7.2929688L12 10.585938L15.292969 7.2929688C15.390719 7.1952188 15.502703 7.1211406 15.623047 7.0722656C15.984078 6.9256406 16.413781 6.9997187 16.707031 7.2929688C17.098031 7.6839688 17.098031 8.3160312 16.707031 8.7070312L13.414062 12L16.707031 15.292969C17.000281 15.586219 17.074359 16.015922 16.927734 16.376953C16.878859 16.497297 16.804781 16.609281 16.707031 16.707031C16.609531 16.804531 16.497328 16.876906 16.376953 16.925781C16.256578 16.974656 16.128 17 16 17C15.744 17 15.487969 16.902031 15.292969 16.707031L12 13.414062L8.7070312 16.707031C8.5120312 16.902031 8.256 17 8 17C7.744 17 7.4879688 16.902031 7.2929688 16.707031C6.9019687 16.316031 6.9019687 15.683969 7.2929688 15.292969L10.585938 12L7.2929688 8.7070312C6.9019687 8.3160312 6.9019687 7.6839687 7.2929688 7.2929688C7.4884688 7.0974687 7.74425 7 8 7 z" fill="#3C6469" />
</svg>