<?xml version="1.0" encoding="UTF-8"?><svg id="Layer_2" xmlns="http://www.w3.org/2000/svg" xmlns:xlink="http://www.w3.org/1999/xlink" viewBox="0 0 641 636"><defs><style>.cls-1{fill:#ebe2d7;}.cls-2{clip-path:url(#clippath);}.cls-3{fill:none;}</style><clipPath id="clippath"><rect class="cls-3" width="641" height="636"/></clipPath></defs><g id="Layer_1-2"><g class="cls-2"><path class="cls-1" d="m743.91,44.63c-.96.23-1.99.77-2.88.64-5.65-.85-11.31-1.33-16.97-2.25-7.97-1.3-16.34-1.72-24.49-1.04-10.21.85-21.02,2.44-31.37,1.85-5.34-.3-10.79.18-16.17.28-1.95.04-3.97-.11-5.83-.5-3.88-.81-7.78-1.08-11.79-.58-5.9.74-12.04.1-17.65,2.36-.93.37-2.27.47-3.27.3-5.3-.93-10.18.56-15.34,1.62-8.6,1.76-17.45,2.58-26.11,4.07-1.81.31-2.2-.55-2.41-1.61,7.58-1.32,15.35-2.05,22.83-3.64,14.03-2.98,28.48-4.14,42.77-5.2,3.69-.27,7.57-1.82,11.04-1.41,7.41.9,14.72.27,22.09.16,7.37-.11,14.89-.08,22.15-.93,5.93-.69,11.74-.27,17.63-.1,3.44.1,6.92.26,10.34.67,3.81.45,7.59,1.2,11.38,1.88,3.79.67,7.6,1.34,11.36,2.16.96.21,1.79.83,2.68,1.27Z"/><path class="cls-1" d="m478.56,74.04c-.72.6-1.33,1.44-2.16,1.75-3.43,1.29-6.88,2.56-10.36,3.69-6.93,2.26-13.13,5.9-19.49,9.19-.69.36-1.46.67-2.2.83-4.25.89-8.5,1.77-12.74,2.73-.41.09-.94.2-1.19.45-4.6,4.65-11.2,4.53-16.59,7.35-5.21,2.73-11.01,4.4-16.28,7.08-3.52,1.79-6.63,4.36-9.88,6.62-1.37.95-2.67,2.35-4.12,2.78-7.19,2.12-13.27,6.58-19.8,10.05-.78.41-1.8.33-2.71.48.75-.83,1.36-1.89,2.28-2.46,4.93-3,9.94-5.88,15.05-8.58,6.57-3.47,12.57-7.6,18.58-11.91,4.69-3.37,10.38-4.66,15.84-6.19,1.2-.34,2.44-.66,3.58-1.15,16.05-6.95,32.51-13.38,49.03-19.16,3.44-1.2,6.89-2.53,10.39-3.62.84-.26,1.84.03,2.77.07Z"/><path class="cls-1" d="m216.35,246.44c.26.59.94,1.35.71,1.75-1.18,2.13-2.38,4.33-3.92,6.23-2.8,3.45-5.78,6.76-8.72,10.1-.94,1.07-2.09,1.98-3.21,2.87-2.88,2.28-6.04,4.26-8.61,6.9-4.68,4.81-9.04,10.04-13.27,15.25-6.05,7.45-11.63,16.4-15.78,25.04-2.06,4.28-5.34,8.19-8.13,12.22-.28.41-1.54.12-2.34.16,2.2-3.4,4.63-6.67,6.65-10.15,2.82-4.85,5.38-9.85,8.17-14.73.73-1.28,1.53-2.53,2.39-3.73,3.24-4.51,6.51-8.99,9.96-13.33,4.31-5.42,9.02-10.47,14.24-14.91.47-.4.85-.94,1.27-1.42,6.65-7.57,13.53-15.02,20.58-22.24Z"/><path class="cls-1" d="m92.24,447.82c.09.73.43,1.54.22,2.17-3.88,11.81-7.51,23.81-10.91,35.78-1.89,6.65-3.74,13.39-5.68,20.08-2.28,7.86-4.63,15.73-6.8,23.68-.12.45-.79.74-1.21,1.1-.23-.5-.72-1.07-.63-1.5,2.17-10.51,4.4-21.64,8.12-31.81,2.54-6.95,5.16-13.85,6.85-20.87,2.07-8.62,4.72-17.02,7.79-25.28.46-1.23,1.48-2.23,2.25-3.34Z"/><path class="cls-1" d="m556.65,52.18c.18,1.06.11,1.94-1.66,2.37-7.36,1.78-14.65,3.74-21.88,5.84-6.18,1.8-12.28,3.81-18.41,5.69-1.99.61-4.16.59-6.22,1.05-2.5.56-5.26.92-7.36,2.1-4.22,2.35-8.41,3.75-13.2,3.97-1.6.07-3.29,1.11-4.95,1.34-.64.09-1.3-.85-1.95-1.32,12.78-4.11,25.6-7.98,38.49-11.53,3.45-.95,6.8-2.41,10.25-3.5,1.42-.45,2.98-.86,4.41-.87,5.02-.03,9.61-1.17,14.25-3.17,2.49-1.08,5.46-1.35,8.22-1.96Z"/><path class="cls-1" d="m357.74,129.02c.07.64.48,1.6.16,1.87-2.48,2.13-4.92,4.42-7.66,6.18-9.19,5.89-18.4,11.9-27.36,18.17-1.5,1.05-3.07,2.66-4.32.6,3.29-1.62,5.27-4.82,8.86-6.37,3.35-1.45,6.24-4.33,9.55-6.13,3.79-2.06,6.68-5.2,10.64-7.14,3.61-1.77,6.74-4.77,10.12-7.18Z"/><path class="cls-1" d="m54.43,632.44c1.05.09,1.97.34,1.89,2.21-.33,7.35-.51,14.73-.57,22.14-.01,1.65.13,3.34-.04,4.96-.22,2.04,1.01,4.54-.92,6.09-.35-1.37-.97-2.74-.99-4.11-.13-10.4.1-20.89.63-31.29Z"/><path class="cls-1" d="m62.54,557.89c.57.56,1.67,1.14,1.62,1.68-.56,6.13-1.21,12.28-1.69,18.44-.15,1.98-.96,2.65-2.35,2.38.35-2.61-1.19-5.35.98-7.91.59-.7.53-2.49.63-3.78.28-3.61.51-7.21.81-10.81Z"/><path class="cls-1" d="m275.13,189.59c.17.62.64,1.68.48,1.79-3.61,2.61-4.92,7.5-9.72,9.07-1.35.44-2.48,2.24-3.87,3.1-.53.33-1.5-.28-2.27-.46,5.05-4.58,10.18-9.08,15.38-13.49Z"/><path class="cls-1" d="m103.24,422.89c.1.15.32.34.28.43-2.6,6.45-5.09,12.96-7.58,19.47-.1.26-1.22.12-1.87.17,2.24-5.86,4.53-11.71,7.03-17.45.44-1,1.41-1.76,2.14-2.62Z"/><path class="cls-1" d="m297.99,171.07c-1.44,2.28-7.28,8.75-8.82,9.35-.65.25-1.47-.39-2.22-.62,1.7-1.74,3.29-3.6,5.16-5.15,1.77-1.47,3.17-3.92,5.89-3.57Z"/><path class="cls-1" d="m137.58,352.14c-.55,3.67-1.59,5.48-4.48,7.82.5-3.67,1.56-5.52,4.48-7.82Z"/><path class="cls-1" d="m56.12,620.36c1.4,4.54,1.04,6.59-1.49,8.02.58-2.65-.72-5.86,1.49-8.02Z"/><path class="cls-1" d="m315.44,158.07c-1.14,2.72-1.64,2.92-3.7,1.44,1.23-.48,2.47-.96,3.7-1.44Z"/><path class="cls-1" d="m67.31,533.2c.49.56.99,1.11,1.48,1.66-.68.3-1.35.61-2.03.92.18-.86.36-1.72.55-2.58Z"/><path class="cls-1" d="m110.71,694.44c-2.9.41-2.88-3.4-2.99-4.72-.29-3.58-1.65-6.98-.9-10.84.44-2.29-.84-5.13-1.27-7.74-.26-1.58-.93-3.42-.53-4.73,3.7-13.08,3.35-26.72,3.61-40.18.22-5.61-.15-11.37.63-16.96.8-5.74,2.3-11.33,3.6-16.94.27-1.17.48-2.37.64-3.56,1.18-8.84,2.58-17.61,4.09-26.34.26-1.52.07-3.12.19-4.68.11-1.38.05-2.92.58-4.1,3.59-7.95,4.45-16.56,6.24-24.84,1.61-7.47,3.96-14.53,6.76-21.52,1.31-3.27,3.09-6.42,3.41-10.27.29-3.6,1.84-7.17,2.58-10.78,1.1-5.29,1.8-10.66,3.2-15.88.63-2.34,2.09-4.63,3.56-6.58,1.21-1.62,2.27-2.86,2.08-5.12-.1-1.17.7-2.62,1.28-3.85,1.32-2.83,1.87-5.64.76-8.32-.89-2.16-.4-4.28.9-5.99,4.41-5.8,6.53-12.28,7.87-19.21.22-1.12.67-2.23,1.12-3.3,1.45-3.41,3.53-6.52,4.07-10.34.23-1.6,1.23-3.6,2.41-4.68,2.74-2.5,4-5.81,5.59-8.91,2.1-4.08,4.55-7.6,8.2-10.38,1.92-1.47,4.04-4.27,4.4-6.51,1.2-7.43,5.06-13.69,9.04-19.93.96-1.51,1.82-2.98,3.68-3.39,3.61-.81,5.06-3.64,5.76-7.02.81-3.89,1.38-7.71,5.4-10.31,1.24-.8,1.97-3.27,2.44-5.04.95-3.61,2.99-6.15,6.12-8.05,1.24-.75,2.88-1.87,3.27-3.04,1.62-4.82,5.14-8.31,8.21-12.12.59-.73.97-1.65,1.4-2.49,2.07-4.06,4.37-7.65,7.96-11.02,4.86-4.56,9.54-9.67,13.12-15.68,2.04-3.43,5.32-6.29,8.25-9.2,2.04-2.03,4.38-3.76,6.59-5.62,2.51-2.1,4.88-4.48,7.6-6.19,4.34-2.74,7.79-6.38,11.44-9.85,1.44-1.37,2.88-2.16,4.85-2.7,5.99-1.65,11.03-4.59,13.45-11.11.6-1.61,2.25-3,3.46-4.46,3.61-4.35,8.38-6.88,13.37-9.1,3.63-1.62,6.44-4.19,7.51-8.12.72-2.63,2.48-4.59,4.85-6.18,5-3.35,10-6.7,15.12-9.84.95-.58,2.13-.86,3.21-1.06,2.57-.46,4.36-1.79,6.23-3.74,1.78-1.85,4.36-3.02,6.58-4.5,1.71-1.14,3.9-2.04,4.98-3.54,3.7-5.1,9.43-7.44,14.62-10.39,2.95-1.68,6.37-2.56,9.63-3.56.58-.18,1.37.62,2.06.97-5.14,2.66-9.7,6.33-15.35,8.23-2.12.71-3.95,2.94-5.72,4.65-3.62,3.5-8.26,5.3-12.32,8.06-7.26,4.95-14.51,9.91-21.45,15.29-6.72,5.21-13.12,10.81-19.48,16.41-1.02.9-2.01,2.09-3.17,2.53-5.73,2.19-8.63,7.16-12.25,11.53-2.42,2.93-5.37,5.85-8.58,7.74-3.41,2.01-6.02,4.74-8.92,7.23-4.96,4.26-9.91,8.54-14.63,13.07-1.48,1.42-2.35,3.5-3.83,4.92-2.31,2.21-4.84,4.21-7.36,6.19-1.48,1.17-3.15,2.06-4.7,3.14-.62.43-1.37.89-1.72,1.5-4.69,8.2-11.99,14.25-17.48,21.74-.9,1.23-1.59,2.63-2.54,3.82-2.48,3.13-5.02,6.23-7.5,9.37-1.3,1.64-3,3.13-3.85,4.95-1.82,3.93-4.6,6.92-7.36,10.18-4.11,4.86-7.95,10.11-11.02,15.68-2.26,4.1-4.33,8.07-7.59,11.47-1.31,1.37-2.53,3-3.37,4.7-2.21,4.45-3.82,9.18-6.16,13.53-2.64,4.93-5.82,9.61-8.71,14.44-.49.81-1.58,1.54-1.65,2.28-.39,3.91-3.19,6.46-5.15,9.36-4.36,6.44-7.5,13.25-9.32,20.86-1.37,5.71-4.93,11.11-6.14,16.87-1.62,7.66-6.4,14.26-7.08,22.06-.11,1.28-.91,2.57-1.41,3.85-2.28,5.79-3.02,11.95-4.55,17.86-2.03,7.83-4.03,15.8-8.14,23.12-2.32,4.14-4.24,8.71-5.55,13.34-3.26,12.42-6.03,24.72-8.46,37.33-1.14,6.43-1.16,13.09-2.49,19.45-1.86,8.89-2.81,18.04-5.25,26.93-.52,1.91-.37,4.05-.69,6.05-.42,2.55-1.03,5.06-1.48,7.61-.21,1.2-.48,2.49-.35,3.63,1.19,10.21-.2,20.89-.53,31.22,0,4.14-1.33,8.3-1.83,12.52-.22,1.83-.46,3.95.07,5.58,1.43,4.45.85,9.03,1.32,13.54.34,3.26.94,6.49,1.46,9.73Z"/><path class="cls-1" d="m462.71,136.55c0-.64-.29-1.62.06-1.87,2.93-2.13,5.89-4.29,9.11-6.03,4.29-2.32,9.26-3.03,13.54-5.83,2.03-1.33,5.21-1.19,7.87-1.71,1.9-.37,3.94-.49,5.68-1.22,4.29-1.8,8.81-2.77,13.22-4.15,5.3-1.66,10.7-2.22,16.14-2.8,3.49-.37,6.96-1.62,10.44-2.44,4.03-.95,7.99-2.01,12.23-2,3.64,0,7.4-.72,11.08-1.31,3.75-.6,7.54-2.08,11.19-1.97,3.96.11,7.1-1.81,10.79-2.19,3.67-.38,7.28-1.72,10.95-2.58,1.76-.41,2.68.14,2.79,1.62-6.88,1.71-13.77,3.34-20.39,5.61-2.13.73-3.83,1.08-6.09,1.09-4.44.02-8.92.91-13.39,1.35-3.85.38-7.72.52-11.57.9-1.55.15-3.12.45-4.64.82-9.81,2.34-19.65,5.02-29.24,8.08-2.75.88-5.23,2.61-7.97,3.43-8.8,2.65-17.49,5.79-26.32,7.97-5.36,1.32-10.34,3.41-15.46,5.23Z"/><path class="cls-1" d="m600.18,101.74c-.12-1.06-.05-2.13,1.63-2.2,5.04-.23,8.79-2.74,13.05-4.72,6.44-2.99,13.46-4.65,20.82-1.91,5.88,2.18,11.83,2.66,17.66-1.03,1.07-.68,3.17-.85,4.54-.54,5.06,1.16,9.91,2.88,15.42,2.53.38-.02.89,1.22,1.34,1.87-4.46-.11-8.85-.16-13.33-.64-4.46-.48-9.16,1.03-13.75,1.22-6.22.26-12.48-.14-18.66.35-7.36.58-14.57,2.03-21.59,4.04-2.27.65-4.76.69-7.14,1.03Z"/><path class="cls-1" d="m419.83,156.26c.07-.77-.16-1.97.25-2.23,4.15-2.65,8.45-5.12,12.77-7.53,2.2-1.23,4.01-1.2,4.98.96-2.81,1.31-5.66,2.54-8.37,4.03-2.48,1.37-4.75,3.08-7.19,4.52-.63.37-1.62.18-2.45.25Z"/><path class="cls-1" d="m456.55,140.21c-.05-2.64.71-3.17,3.97-2.75-.32,2.17-2.66,1.82-3.97,2.75Z"/><path class="cls-1" d="m397.07,168.56c1.24-2.48,1.75-2.6,3.56-.86-1.19.28-2.37.57-3.56.86Z"/><path class="cls-1" d="m442.12,145.48c1.46-2.37,1.98-2.44,3.63-.55-1.21.18-2.42.36-3.63.55Z"/><path class="cls-1" d="m411.95,161.5c-.09-.63-.18-1.26-.26-1.89.63-.03,1.25-.07,1.88-.1-.54.66-1.08,1.32-1.61,1.99Z"/><path class="cls-1" d="m168.65,724.26c.19-.8.64-1.65.53-2.39-.71-4.7-1.1-9.41-1.87-14.12-1.08-6.63-1.43-13.6-.87-20.38.71-8.5,2.03-17.5,1.54-26.11-.25-4.44.15-8.98.23-13.45.03-1.62-.09-3.31-.41-4.85-.67-3.23-.9-6.47-.48-9.81.61-4.91.08-10.02,1.96-14.69.31-.77.39-1.89.25-2.72-.77-4.41.47-8.47,1.35-12.76,1.47-7.16,2.15-14.52,3.39-21.73.26-1.5-.46-1.83-1.34-2-1.1,6.31-1.71,12.77-3.03,19-2.48,11.68-3.45,23.7-4.33,35.59-.23,3.07-1.52,6.3-1.17,9.18.75,6.17.23,12.25.13,18.38-.09,6.13-.07,12.39-.77,18.43-.58,4.93-.22,9.77-.09,14.67.08,2.87.22,5.76.55,8.61.38,3.17,1,6.31,1.56,9.47.56,3.15,1.11,6.32,1.8,9.45.18.8.69,1.49,1.06,2.23Z"/><path class="cls-1" d="m193.12,503.44c.5-.6,1.2-1.11,1.45-1.8,1.08-2.86,2.13-5.73,3.07-8.62,1.88-5.77,4.91-10.92,7.65-16.22.3-.57.56-1.21.69-1.83.74-3.54,1.47-7.07,2.27-10.6.08-.34.17-.78.38-.99,3.87-3.83,3.77-9.32,6.12-13.81,2.27-4.34,3.66-9.16,5.89-13.55,1.49-2.93,3.63-5.51,5.51-8.22.79-1.14,1.95-2.22,2.31-3.43,1.77-5.98,5.47-11.04,8.37-16.47.34-.65.27-1.5.4-2.25-.69.62-1.58,1.13-2.04,1.9-2.5,4.1-4.89,8.28-7.14,12.53-2.89,5.47-6.32,10.46-9.91,15.46-2.81,3.9-3.88,8.64-5.15,13.18-.28,1-.55,2.03-.96,2.98-5.79,13.36-11.14,27.06-15.94,40.8-1,2.86-2.11,5.73-3.01,8.65-.22.7.02,1.53.06,2.3Z"/><path class="cls-1" d="m336.59,285.24c.49.22,1.12.78,1.46.59,1.77-.98,3.61-1.98,5.19-3.26,2.87-2.33,5.63-4.81,8.41-7.26.89-.78,1.65-1.74,2.39-2.67,1.9-2.4,3.54-5.03,5.74-7.17,4-3.9,8.35-7.52,12.69-11.04,6.2-5.03,13.65-9.68,20.84-13.13,3.56-1.71,6.82-4.44,10.17-6.77.34-.24.1-1.28.13-1.95-2.83,1.83-5.55,3.85-8.45,5.54-4.04,2.35-8.2,4.47-12.26,6.8-1.06.61-2.1,1.28-3.1,1.99-3.75,2.69-7.48,5.42-11.1,8.29-4.51,3.59-8.71,7.51-12.4,11.85-.33.39-.79.71-1.18,1.06-6.3,5.54-12.5,11.26-18.51,17.13Z"/><path class="cls-1" d="m504.18,181.96c.6.07,1.28.36,1.8.19,9.83-3.23,19.81-6.25,29.77-9.08,5.54-1.57,11.14-3.12,16.71-4.73,6.54-1.9,13.09-3.86,19.7-5.66.38-.1.61-.66.91-1.01-.42-.19-.89-.6-1.25-.53-8.74,1.8-18.01,3.66-26.47,6.75-5.78,2.11-11.52,4.3-17.37,5.7-7.17,1.72-14.16,3.93-21.04,6.49-1.02.38-1.86,1.23-2.78,1.87Z"/><path class="cls-1" d="m174.93,568.43c.88.15,1.62.09,1.97-1.38,1.48-6.12,3.11-12.19,4.86-18.21,1.5-5.15,3.17-10.22,4.74-15.32.51-1.65.49-3.47.87-5.18.46-2.08.77-4.37,1.74-6.13,1.96-3.51,3.12-7,3.3-10.98.06-1.33.92-2.74,1.12-4.12.07-.53-.71-1.08-1.1-1.62-3.42,10.64-6.64,21.3-9.59,32.03-.79,2.87-2.01,5.66-2.91,8.53-.37,1.18-.72,2.48-.73,3.67-.03,4.17-.97,7.99-2.64,11.86-.9,2.07-1.12,4.54-1.63,6.84Z"/><path class="cls-1" d="m238.88,402.9c.53.06,1.33.4,1.55.14,1.77-2.07,3.68-4.09,5.14-6.37,4.9-7.65,9.9-15.31,15.12-22.77.87-1.25,2.21-2.56.5-3.6-1.35,2.74-4.01,4.39-5.3,7.37-1.2,2.79-3.6,5.19-5.1,7.95-1.71,3.15-4.33,5.56-5.94,8.86-1.47,3.01-3.97,5.61-5.98,8.42Z"/><path class="cls-1" d="m595.77,157.25c.47.47.95,1.39,1.4,1.35,5.1-.46,10.22-1,15.34-1.41,1.65-.13,2.21-.8,1.98-1.95-2.17.29-4.45-.99-6.58.81-.58.49-2.07.44-3.14.53-3,.23-6,.43-8.99.67Z"/><path class="cls-1" d="m289.28,334.16c.51.15,1.4.53,1.49.4,2.17-3.01,6.24-4.09,7.55-8.09.37-1.12,1.87-2.07,2.58-3.22.27-.44-.23-1.25-.38-1.89-3.81,4.2-7.56,8.47-11.23,12.8Z"/><path class="cls-1" d="m483.43,191.12c.12.08.28.27.36.23,5.37-2.16,10.78-4.24,16.2-6.31.21-.08.1-1.02.14-1.56-4.88,1.87-9.74,3.77-14.52,5.85-.83.36-1.46,1.18-2.18,1.78Z"/><path class="cls-1" d="m273.87,353.18c1.9-1.2,7.28-6.06,7.78-7.34.21-.54-.32-1.23-.52-1.85-1.45,1.41-3,2.74-4.29,4.29-1.22,1.47-3.26,2.64-2.97,4.9Z"/><path class="cls-1" d="m424.55,219.69c3.05-.46,4.56-1.32,6.51-3.73-3.06.41-4.6,1.3-6.51,3.73Z"/><path class="cls-1" d="m263.05,367.7c2.26-.95,2.43-1.37,1.2-3.08-.4,1.03-.8,2.05-1.2,3.08Z"/><path class="cls-1" d="m575.23,161.21c.46.41.92.82,1.38,1.23.25-.56.51-1.13.76-1.69-.72.15-1.43.3-2.15.46Z"/><path class="cls-1" d="m709.41,197.33c.34-2.41-2.83-2.4-3.93-2.48-2.98-.24-5.81-1.37-9.02-.75-1.9.37-4.27-.7-6.44-1.05-1.31-.22-2.85-.77-3.94-.44-10.89,3.08-22.24,2.79-33.44,3.01-4.67.18-9.46-.12-14.11.52-4.78.66-9.43,1.92-14.1,2.99-.97.22-1.97.4-2.96.53-7.36.98-14.66,2.14-21.92,3.4-1.27.22-2.6.06-3.89.16-1.15.09-2.43.04-3.41.48-6.62,2.99-13.78,3.71-20.67,5.19-6.22,1.34-12.09,3.3-17.91,5.62-2.72,1.09-5.34,2.57-8.55,2.83-2.99.24-5.96,1.53-8.97,2.15-4.4.91-8.87,1.5-13.21,2.66-1.95.52-3.85,1.74-5.48,2.96-1.35,1.01-2.38,1.89-4.26,1.73-.97-.08-2.18.59-3.21,1.07-2.35,1.1-4.7,1.56-6.92.63-1.79-.74-3.56-.34-4.99.75-4.83,3.67-10.22,5.43-15.99,6.55-.93.18-1.85.56-2.74.94-2.84,1.21-5.43,2.94-8.61,3.39-1.33.19-3,1.02-3.89,2-2.08,2.28-4.83,3.33-7.41,4.65-3.4,1.74-6.32,3.78-8.64,6.82-1.22,1.6-3.55,3.36-5.42,3.66-6.19,1-11.39,4.21-16.59,7.52-1.25.8-2.48,1.52-2.82,3.06-.67,3.01-3.03,4.21-5.85,4.79-3.23.67-6.42,1.15-8.58,4.5-.67,1.03-2.72,1.64-4.19,2.03-3,.79-5.12,2.49-6.7,5.09-.62,1.03-1.56,2.39-2.53,2.72-4.01,1.34-6.91,4.28-10.09,6.84-.61.49-1.37.81-2.08,1.17-3.38,1.72-6.37,3.64-9.17,6.62-3.8,4.04-8.04,7.94-13.05,10.92-2.86,1.7-5.23,4.43-7.65,6.86-1.69,1.7-3.13,3.64-4.67,5.48-1.75,2.09-3.73,4.06-5.15,6.32-2.28,3.61-5.31,6.48-8.2,9.52-1.14,1.2-1.8,2.4-2.25,4.04-1.37,4.99-3.82,9.18-9.25,11.19-1.34.5-2.49,1.87-3.71,2.88-3.62,3-5.72,6.97-7.57,11.12-1.35,3.02-3.49,5.36-6.76,6.25-2.18.6-3.82,2.06-5.14,4.03-2.79,4.16-5.57,8.32-8.19,12.59-.48.79-.72,1.77-.88,2.68-.38,2.14-1.49,3.63-3.11,5.19-1.54,1.48-2.51,3.63-3.74,5.48-.95,1.42-1.7,3.24-2.95,4.15-4.25,3.08-6.19,7.85-8.65,12.17-1.4,2.46-2.13,5.3-2.96,8.01-.15.48.52,1.14.81,1.72,2.22-4.28,5.27-8.07,6.85-12.77.59-1.77,2.45-3.29,3.87-4.76,2.91-3.01,4.41-6.88,6.71-10.25,4.12-6.04,8.25-12.08,12.72-17.85,4.34-5.59,8.99-10.92,13.66-16.21.75-.85,1.74-1.67,2.11-2.64,1.82-4.77,5.96-7.18,9.59-10.19,2.44-2.02,4.87-4.47,6.44-7.14,1.67-2.84,3.94-5.01,6.02-7.42,3.54-4.12,7.11-8.24,10.88-12.18,1.18-1.24,2.91-1.96,4.09-3.19,1.84-1.92,3.5-4.03,5.15-6.12.97-1.23,1.72-2.62,2.61-3.91.36-.52.74-1.14,1.24-1.43,6.82-3.9,11.86-9.98,18.09-14.55,1.03-.75,2.18-1.33,3.18-2.11,2.61-2.07,5.18-4.18,7.8-6.24,1.37-1.08,2.61-2.5,4.12-3.2,3.27-1.52,5.76-3.83,8.47-6.12,4.04-3.42,8.42-6.62,13.05-9.17,3.41-1.88,6.71-3.6,9.54-6.32,1.14-1.09,2.49-2.11,3.91-2.81,3.7-1.84,7.64-3.18,11.26-5.12,4.11-2.2,7.99-4.85,12.02-7.25.68-.4,1.28-1.31,1.9-1.38,3.26-.32,5.37-2.65,7.79-4.29,5.36-3.63,11.02-6.24,17.36-7.76,4.75-1.14,9.25-4.1,14.03-5.11,6.38-1.35,11.87-5.33,18.35-5.89,1.06-.09,2.14-.75,3.21-1.17,4.82-1.9,9.94-2.51,14.86-3.79,6.52-1.69,13.15-3.35,19.24-6.77,3.44-1.93,7.25-3.53,11.1-4.62,10.34-2.72,20.57-5.02,31.07-7.04,5.35-.95,10.89-.97,16.19-2.08,7.4-1.55,15.01-2.34,22.41-4.37,1.59-.44,3.37-.3,5.03-.57,2.12-.35,4.21-.86,6.33-1.23.99-.17,2.07-.4,3.02-.29,8.5.99,17.38-.17,25.98-.44,3.45,0,6.91-1.11,10.42-1.53,1.52-.18,3.29-.38,4.64.06,3.71,1.19,7.51.71,11.26,1.1,2.71.28,5.4.78,8.1,1.21Z"/><path class="cls-1" d="m245.15,490.26c-.53,0-1.35-.24-1.56.05-1.77,2.44-3.57,4.9-5.02,7.58-1.93,3.57-2.52,7.71-4.85,11.26-1.11,1.69-.99,4.33-1.43,6.55-.31,1.58-.4,3.27-1.01,4.72-1.5,3.57-2.31,7.33-3.46,11-1.38,4.41-1.84,8.9-2.33,13.43-.31,2.9-1.34,5.79-2.03,8.69-.79,3.35-1.67,6.65-1.66,10.18,0,3.03-.6,6.16-1.09,9.22-.5,3.12-1.73,6.27-1.64,9.31.09,3.29-1.51,5.91-1.83,8.98-.32,3.06-1.43,6.06-2.15,9.11-.34,1.46.12,2.23,1.35,2.32,1.42-5.72,2.78-11.46,4.67-16.96.61-1.77.9-3.19.91-5.07.02-3.7.76-7.43,1.12-11.14.31-3.21.43-6.42.75-9.63.13-1.29.37-2.59.68-3.86,1.94-8.17,4.18-16.35,6.72-24.34.73-2.28,2.17-4.35,2.86-6.63,2.2-7.32,4.82-14.55,6.63-21.91,1.1-4.46,2.84-8.6,4.35-12.86Z"/><path class="cls-1" d="m216.18,604.66c-.88-.1-1.77-.04-1.83,1.35-.19,4.2-2.28,7.32-3.93,10.86-2.49,5.36-3.87,11.2-1.59,17.33,1.82,4.9,2.21,9.85-.86,14.7-.56.89-.71,2.64-.45,3.78.97,4.21,2.4,8.25,2.1,12.83-.02.32,1.01.74,1.56,1.12-.09-3.71-.13-7.36-.53-11.09-.4-3.71.86-7.62,1.02-11.44.21-5.18-.11-10.38.29-15.53.49-6.12,1.69-12.13,3.36-17.96.54-1.89.57-3.96.86-5.94Z"/><path class="cls-1" d="m261.55,454.58c-.64.06-1.64-.14-1.86.21-2.21,3.46-4.26,7.03-6.27,10.63-1.02,1.83-1,3.34.8,4.14,1.09-2.34,2.11-4.71,3.36-6.96,1.14-2.06,2.57-3.95,3.76-5.98.31-.53.15-1.35.21-2.03Z"/><path class="cls-1" d="m248.19,485.13c-2.2-.04-2.64.59-2.29,3.31,1.81-.27,1.52-2.21,2.29-3.31Z"/><path class="cls-1" d="m271.78,435.63c-2.06,1.03-2.17,1.45-.72,2.96.24-.99.47-1.97.72-2.96Z"/><path class="cls-1" d="m252.57,473.12c-1.97,1.22-2.03,1.65-.46,3.02.15-1.01.3-2.02.46-3.02Z"/><path class="cls-1" d="m265.91,448.02c-.52-.07-1.05-.15-1.57-.22-.03.52-.06,1.04-.08,1.56.55-.45,1.1-.9,1.65-1.34Z"/></g></g></svg>