<?xml version="1.0" encoding="UTF-8"?><svg id="Layer_2" xmlns="http://www.w3.org/2000/svg" xmlns:xlink="http://www.w3.org/1999/xlink" viewBox="0 0 787.5 403"><defs><style>.cls-1{fill:#ebe2d7;}.cls-2{clip-path:url(#clippath);}.cls-3{fill:none;}</style><clipPath id="clippath"><rect class="cls-3" y="0" width="787.5" height="403"/></clipPath></defs><g id="Layer_1-2"><g class="cls-2"><path class="cls-1" d="m787.82,452.7c-.61-.72-1.46-1.34-1.78-2.17-1.35-3.46-2.67-6.94-3.87-10.44-2.39-6.99-6.14-13.22-9.54-19.61-.37-.69-.7-1.46-.87-2.22-.97-4.28-1.93-8.57-2.97-12.84-.1-.41-.22-.95-.48-1.19-4.74-4.58-4.75-11.25-7.69-16.68-2.84-5.23-4.63-11.06-7.44-16.36-1.87-3.53-4.52-6.64-6.86-9.9-.98-1.37-2.42-2.67-2.87-4.12-2.29-7.24-6.9-13.31-10.54-19.85-.43-.78-.37-1.81-.55-2.72.85.75,1.93,1.35,2.52,2.27,3.12,4.94,6.13,9.96,8.95,15.08,3.63,6.59,7.9,12.6,12.35,18.61,3.48,4.7,4.89,10.43,6.54,15.92.36,1.21.7,2.45,1.23,3.6,7.38,16.12,14.09,32.58,20.1,49.34,1.25,3.49,2.65,6.94,3.8,10.47.28.85,0,1.86-.02,2.8Z"/><path class="cls-1" d="m608.33,190.92c-.59.27-1.33.97-1.74.75-2.18-1.14-4.44-2.3-6.4-3.81-3.56-2.74-7-5.67-10.46-8.55-1.11-.92-2.07-2.06-3-3.16-2.39-2.85-4.49-5.98-7.23-8.5-5-4.6-10.36-8.86-15.81-12.98-8.03-6.07-16.67-11.09-25.78-15.24-4.4-2-8.44-5.15-12.61-7.85-.42-.27-.18-1.54-.25-2.34,3.51,2.12,6.89,4.48,10.47,6.42,4.99,2.71,10.12,5.15,15.14,7.84,1.31.7,2.6,1.48,3.84,2.31,4.65,3.14,9.29,6.32,13.78,9.69,5.61,4.2,10.85,8.82,15.5,13.97.42.47.98.83,1.47,1.25,7.86,6.55,15.56,13.29,23.07,20.21Z"/><path class="cls-1" d="m400.7,71.86c-.73.11-1.53.49-2.18.3-12.09-3.55-24.3-6.73-36.61-9.66-6.84-1.63-13.7-3.26-20.54-4.94-8.05-1.98-16.11-4.04-24.24-5.88-.46-.1-.78-.76-1.17-1.16.5-.24,1.05-.77,1.49-.69,10.96,1.89,22.07,3.53,32.53,6.9,7.14,2.3,14.22,4.66,21.39,6.09,8.8,1.76,17.4,4.12,25.87,6.92,1.26.42,2.32,1.41,3.47,2.14Z"/><path class="cls-1" d="m730.3,331.3c-.64.08-1.59.5-1.87.19-2.2-2.48-4.55-4.9-6.38-7.64-6.18-9.21-12.4-18.37-18.92-27.32-1.09-1.5-2.75-3.05-.72-4.35,1.71,3.28,4.97,5.24,6.62,8.83,1.54,3.35,4.5,6.22,6.39,9.54,2.16,3.78,5.38,6.66,7.43,10.63,1.86,3.62,4.95,6.73,7.45,10.11Z"/><path class="cls-1" d="m212.25,41.49c-.04,1.05-.25,1.99-2.15,1.99-7.47.02-14.95.19-22.47.5-1.68.07-3.38.3-5.03.2-2.08-.12-4.56,1.24-6.22-.62,1.37-.42,2.73-1.11,4.12-1.19,10.63-.64,21.22-.89,31.75-.89Z"/><path class="cls-1" d="m288.13,46.29c-.54.59-1.08,1.71-1.63,1.69-6.23-.3-12.48-.69-18.74-.91-2.01-.07-2.73-.85-2.51-2.24,2.65.24,5.35-1.42,8.06.64.73.56,2.54.43,3.85.47,3.66.13,7.32.21,10.97.36Z"/><path class="cls-1" d="m667.3,248.97c-.61.19-1.67.67-1.78.52-2.73-3.6-7.69-4.83-9.4-9.62-.48-1.35-2.33-2.46-3.23-3.84-.34-.53.24-1.52.39-2.3,4.76,5,9.43,10.08,14.02,15.24Z"/><path class="cls-1" d="m426.34,82.06c-.14.11-.33.33-.42.3-6.62-2.39-13.29-4.68-19.97-6.96-.26-.09-.18-1.22-.25-1.87,6.02,2.05,12.01,4.15,17.91,6.46,1.03.4,1.83,1.36,2.74,2.06Z"/><path class="cls-1" d="m686.56,271.69c-2.32-1.44-8.99-7.21-9.64-8.74-.27-.65.35-1.49.56-2.24,1.8,1.68,3.71,3.25,5.32,5.11,1.52,1.75,4.03,3.13,3.75,5.87Z"/><path class="cls-1" d="m499.07,114.37c-3.72-.45-5.59-1.44-8.05-4.28,3.72.4,5.63,1.41,8.05,4.28Z"/><path class="cls-1" d="m224.57,42.62c-4.53,1.62-6.63,1.35-8.2-1.11,2.71.45,5.9-.99,8.2,1.11Z"/><path class="cls-1" d="m700.08,289.06c-2.76-1.11-2.97-1.61-1.54-3.71.52,1.23,1.03,2.47,1.54,3.71Z"/><path class="cls-1" d="m313.32,50.05c-.54.51-1.08,1.03-1.62,1.55-.34-.67-.68-1.33-1.02-1.99.88.15,1.76.3,2.64.44Z"/><path class="cls-1" d="m152.15,100.81c-.56-2.88,3.3-3.06,4.64-3.23,3.61-.47,6.99-2.01,10.94-1.46,2.34.32,5.15-1.1,7.78-1.66,1.58-.34,3.42-1.1,4.77-.77,13.59,3.33,27.31,1.76,40.84,1.67,5.68-.04,11.49-.67,17.18-.15,5.84.54,11.57,1.79,17.29,2.84,1.2.22,2.42.38,3.63.48,8.99.79,17.92,1.82,26.8,2.96,1.55.2,3.15-.06,4.74,0,1.4.05,2.95-.07,4.17.41,8.18,3.26,16.92,3.78,25.36,5.25,7.61,1.32,14.84,3.41,22.01,5.94,3.36,1.18,6.61,2.86,10.51,3.03,3.65.16,7.31,1.58,10.99,2.2,5.38.91,10.82,1.42,16.15,2.65,2.39.55,4.75,1.93,6.79,3.33,1.68,1.16,2.98,2.18,5.24,1.9,1.17-.14,2.67.62,3.94,1.15,2.9,1.23,5.77,1.68,8.42.49,2.14-.97,4.3-.55,6.08.71,6.02,4.23,12.64,6.14,19.68,7.27,1.14.18,2.27.6,3.37,1.02,3.5,1.35,6.72,3.33,10.58,3.77,1.62.18,3.68,1.12,4.81,2.27,2.63,2.67,6,3.84,9.19,5.34,4.19,1.98,7.82,4.34,10.77,7.91,1.55,1.88,4.45,3.93,6.72,4.23,7.54.99,13.98,4.7,20.41,8.52,1.55.92,3.06,1.75,3.55,3.6.94,3.6,3.85,4.97,7.28,5.59,3.94.71,7.8,1.18,10.57,5.16.85,1.22,3.36,1.89,5.16,2.32,3.66.87,6.3,2.85,8.31,5.94.8,1.22,1.98,2.84,3.17,3.21,4.91,1.51,8.54,4.96,12.48,7.96.76.58,1.69.94,2.56,1.35,4.15,1.99,7.84,4.21,11.35,7.74,4.75,4.77,10.04,9.37,16.2,12.83,3.52,1.98,6.49,5.21,9.51,8.09,2.11,2.01,3.92,4.32,5.85,6.5,2.19,2.48,4.65,4.82,6.46,7.51,2.88,4.3,6.64,7.7,10.24,11.31,1.42,1.42,2.25,2.86,2.85,4.82,1.84,6,4.94,11.01,11.55,13.32,1.63.57,3.07,2.2,4.58,3.4,4.48,3.55,7.14,8.31,9.51,13.28,1.72,3.62,4.39,6.4,8.36,7.42,2.66.68,4.68,2.42,6.33,4.78,3.5,4.98,6.99,9.96,10.27,15.07.61.94.92,2.13,1.14,3.22.52,2.58,1.91,4.36,3.91,6.22,1.91,1.76,3.13,4.35,4.68,6.56,1.19,1.7,2.15,3.9,3.67,4.97,5.21,3.66,7.7,9.4,10.77,14.58,1.76,2.95,2.72,6.38,3.79,9.65.19.58-.59,1.39-.93,2.09-2.79-5.15-6.57-9.69-8.6-15.35-.77-2.13-3.05-3.94-4.8-5.69-3.59-3.59-5.51-8.24-8.39-12.28-5.14-7.23-10.31-14.46-15.89-21.35-5.41-6.68-11.2-13.02-17-19.33-.93-1.01-2.15-1.98-2.63-3.15-2.37-5.73-7.44-8.56-11.92-12.11-3.01-2.38-6.03-5.3-8.02-8.48-2.12-3.39-4.94-5.96-7.53-8.83-4.43-4.9-8.88-9.79-13.58-14.44-1.48-1.46-3.59-2.3-5.06-3.75-2.3-2.27-4.38-4.78-6.45-7.26-1.22-1.46-2.17-3.12-3.3-4.66-.45-.61-.93-1.36-1.56-1.7-8.38-4.52-14.7-11.72-22.43-17.07-1.27-.88-2.69-1.54-3.93-2.46-3.24-2.42-6.43-4.89-9.68-7.31-1.7-1.27-3.25-2.94-5.11-3.74-4.02-1.73-7.12-4.45-10.5-7.14-5.03-4.01-10.46-7.73-16.17-10.65-4.21-2.16-8.28-4.14-11.81-7.31-1.43-1.28-3.11-2.46-4.85-3.26-4.56-2.09-9.38-3.58-13.85-5.8-5.06-2.51-9.89-5.57-14.87-8.32-.84-.46-1.61-1.54-2.36-1.59-3.95-.27-6.62-3-9.62-4.89-6.66-4.17-13.64-7.11-21.39-8.71-5.8-1.19-11.38-4.59-17.24-5.62-7.76-1.37-14.61-5.94-22.53-6.36-1.29-.07-2.63-.82-3.94-1.28-5.94-2.09-12.18-2.61-18.2-3.94-7.99-1.75-16.12-3.47-23.68-7.3-4.27-2.17-8.97-3.92-13.71-5.05-12.5-2.99-25.22-5.26-38.07-6.98-6.55-.88-13.28-.62-19.76-1.68-9.08-1.48-18.37-2.03-27.46-4.07-1.96-.44-4.11-.18-6.15-.42-2.6-.3-5.16-.8-7.77-1.13-1.22-.15-2.53-.38-3.69-.18-10.45,1.79-21.01.43-31.61.95-4.19.21-8.46-.92-12.76-1.21-1.86-.13-4.02-.26-5.65.35-4.43,1.66-9.09,1.31-13.65,2.01-3.29.51-6.53,1.27-9.78,1.96Z"/><path class="cls-1" d="m81.66,113.09c.56-.48,1.08-1.27,1.7-1.38,5.95-1.09,11.67-3.41,17.85-3.1,2.61.14,5.51-.95,8.27-1.46,7.44-1.39,14.86-2.63,22.26-3.72.11,1.05.05,2.07-1.71,2.25-10.09,1.02-19.89,4.19-30.31,4.59-4.61.18-9.32,1.89-14.01,2.85-1.3.26-2.69,0-4.05-.03Z"/><path class="cls-1" d="m704.36,394.24c.77.06,1.97-.19,2.25.23,2.74,4.16,5.3,8.46,7.8,12.79,1.27,2.21,1.29,4.03-.87,5.03-1.37-2.82-2.66-5.68-4.21-8.39-1.42-2.48-3.19-4.75-4.67-7.19-.39-.63-.21-1.63-.3-2.46Z"/><path class="cls-1" d="m54.25,119.31c.55-.51,1.02-1.28,1.68-1.48,4.92-1.5,9.89-2.76,14.82-4.11,1.92-.52,2.92-.17,3.18,1.27-5.38,1.37-10.75,2.87-16.16,4.3-1.1.29-2.33.02-3.51.02Z"/><path class="cls-1" d="m134.3,103.05c3.76-1.96,9.94-2.76,14.03-1.81-3.78,1.85-9.88,2.63-14.03,1.81Z"/><path class="cls-1" d="m691.55,371.45c2.52,1.22,2.65,1.73.94,3.57-.31-1.19-.62-2.38-.94-3.57Z"/><path class="cls-1" d="m698.95,386.36c.63-.1,1.26-.19,1.89-.29.05.63.09,1.26.14,1.89-.67-.54-1.35-1.07-2.03-1.6Z"/></g></g></svg>