<?xml version="1.0" encoding="UTF-8"?><svg id="Layer_2" xmlns="http://www.w3.org/2000/svg" viewBox="0 0 676.18 686.19"><defs><style>.cls-1{fill:#3d6460;}.cls-2{fill:#7f9b97;}.cls-3{fill:#2f6467;}.cls-4{fill:#2f6468;}.cls-5{fill:#71867f;}.cls-6{fill:#7a9999;}.cls-7{fill:#829f9a;}.cls-8{fill:#2d6266;}.cls-9{fill:#f8eee1;}.cls-10{fill:#386666;}.cls-11{fill:#2d6569;}.cls-12{fill:#2d656a;}.cls-13{fill:#7f9f9a;}.cls-14{fill:#346768;}.cls-15{fill:#2c6669;}.cls-16{fill:#a3b1a5;}.cls-17{fill:#93a9a2;}</style></defs><g id="Layer_1-2"><circle class="cls-9" cx="338.09" cy="343.1" r="328.5"/><path class="cls-12" d="m295.13,683.78c-3.97-.61-7.93-1.22-11.9-1.82l-2.18-.44c-2.2-.38-4.4-.75-6.6-1.13-.74-.14-1.49-.28-2.23-.42l.03-.04c-.42-.1-.84-.21-1.27-.31-1.25-.22-2.5-.45-3.75-.67-1.04-.28-2.07-.55-3.11-.83-1.61-.38-3.22-.76-4.83-1.16-30.7-7.52-59.91-18.85-87.4-34.49-6.6-3.76-13.09-7.72-19.63-11.59,0,0,.03.03.03.03-5.74-4.21-11.51-8.39-17.23-12.63-5.18-3.85-10.32-7.76-15.48-11.64l-.05.28.02-.28c-.46-.51-.93-1.01-1.39-1.52l-.11-.09c-2.96-2.64-5.93-5.28-8.89-7.92l-.08-.09c-.66-.9-1.32-1.79-1.98-2.69-.36-.4-.73-.81-1.09-1.21l-.14.08c1.12-2.52,3.73-4.72,1.54-7.66-2-1.01-4.49-1.87-5.5-3.6-3.2-5.51-9.76-7.94-12.31-13.96-.26-.62-1.55-.75-1.98-1.38-1.55-2.3-3.23-4.58-4.22-7.13-.39-1.01.9-2.68,1.61-4.53-1.72.27-3.05.48-4.83.76.4-1.89.73-3.42.98-4.58-1.42-2.25-3.33-4.06-3.74-6.16-1.05-5.34-4.14-9.22-7.66-13-2.7-2.9-5.52-5.75-7.79-8.98-1.27-1.81-2.77-3.62-2.25-6.66.38-2.16.22-5.71-3.33-6.9-.82-.27-1.76-1.31-1.95-2.15-1.42-6.16-6.74-9.91-9.33-15.49-2.22-4.79-6.1-8.75-6.03-14.57.01-1.17-1.04-2.37-1.66-3.53-.86-1.59-2.13-3.06-2.61-4.75-.67-2.37-1.98-4.16-3.77-5.64-1.95-1.61-2.45-3.7-1.51-5.79.68-1.51.48-2.75-.41-3.63-2.18-2.16-1.86-4.79-1.95-7.43-.04-1.29-.42-2.56-.67-3.84-.76-3.84-1.92-7.64-2.22-11.51-.61-7.91-.64-15.85-1.15-23.77-.16-2.57-.86-5.16-1.64-7.64-1.18-3.74-3.01-7.31-3.89-11.11-1.31-5.69-5.14-9.85-8.02-14.58-.93-1.52-1.52-2.85-1.39-4.57.34-4.64.73-9.28.94-13.93.12-2.65-.04-5.31-.15-7.96-.22-5.44-.63-10.88-.67-16.31-.01-1.73.49-3.72,1.44-5.14,1.96-2.92,2.62-5.72,2.77-9.37.19-4.43,1.31-9.02,2.13-13.52.87-4.78.66-9.08-2.57-12.94-.4-.48-.89-1.19-.82-1.73.48-4-1.66-7.04-4.08-10.14.95-.23,1.41-.39,1.88-.45,6.72-.81,9.64-5.49,6.87-11.34-.68-1.43-2.24-2.42-3.25-3.73-.71-.93-1.17-2.05-1.63-2.9,2.62-2.28,3.91-.05,5.92,1.22-.16-2.18-.74-3.54,1.08-5.04,1.96-1.62,2.71-4.71,3.98-7.16-2.11-2.96.85-5.22,1.27-8.29-1.84-2.14-3.82-4.46-5.8-6.77l2.01-7.7s-.05-.07-.05-.07c.22-.41.44-.81.65-1.22.21-.22.28-.48.19-.77,1.3-3.41,2.61-6.82,3.91-10.23h0c.3-.65.6-1.32.91-1.99.22-.18.29-.4.21-.67.74-1.74,1.47-3.48,2.21-5.22.25-.63.5-1.26.75-1.89.32-.74.65-1.47.97-2.21l-.02.04c.32-.69.64-1.37.96-2.06.19-.14.24-.33.16-.55.25-.48.5-.96.75-1.44,1.38-2.97,2.76-5.94,4.14-8.92.36-.69.71-1.38,1.07-2.07.31-.63.63-1.26.94-1.9.35-.7.7-1.39,1.05-2.09l-.04.05c.36-.68.72-1.37,1.08-2.05,3.87-6.56,7.71-13.13,11.62-19.67,22.06-36.87,50.69-67.88,84.74-93.88,32.67-24.94,68.94-42.93,108.42-54.42.64-.19,1.3-.29,1.95-.42.71-.22,1.42-.45,2.12-.67,2.66-.67,5.33-1.34,7.99-2.01.72-.22,1.45-.44,2.17-.67,4.53-.9,9.06-1.8,13.59-2.69.44-.16.88-.32,1.32-.49l9.62-1.41c1.11-.23,2.22-.47,3.32-.7,9.81-1.08,19.63-2.17,29.44-3.25,1.8-.2,3.61-.38,5.41-.57,1.11.97,2.17.91,3.17-.17,8.31,0,16.63,0,24.94.01.65,1.01,1.35,1.01,2.09.1l21.82,1.7,1.17.09c.97.05,1.93.11,2.9.16.76.11,1.52.22,2.29.32,3.22.47,6.44.95,9.66,1.42.37.04.75.08,1.12.12,3.98.69,7.97,1.38,11.95,2.06.39.08.79.17,1.18.25,2.21.48,4.42.95,6.63,1.43.41.08.83.16,1.24.25,21.07,4.8,41.56,11.45,61.32,20.17,27.52,12.15,52.88,27.82,76.27,46.79,27.91,22.64,51.38,49.21,71.07,79.18,11.7,17.82,21.51,36.65,29.61,56.37.5,1.22,1.18,2.36,1.78,3.54.29.69.58,1.38.87,2.06l-.03-.03c.66,1.73,1.32,3.47,1.99,5.2-.08.29-.01.54.21.75.92,2.45,1.84,4.89,2.76,7.34-.1.26-.05.49.17.67l.84,2.28c-.1.28-.04.52.16.72.27.78.55,1.55.82,2.33.11.55.23,1.1.34,1.66.44,1.39.88,2.79,1.32,4.18.2.61.4,1.22.59,1.83.06.32.12.63.18.95.26.68.51,1.36.77,2.05.59,1.85,1.18,3.69,1.77,5.54.06.49.12.97.19,1.46.27.84.54,1.69.81,2.53.12.83.23,1.65.35,2.48-.12.29-.14.59-.04.9.29,1.03.57,2.05.86,3.08.29.79.58,1.59.86,2.38.08.55.17,1.1.25,1.64.18,1.27.37,2.54.55,3.81.1.4.2.79.3,1.19.07.61.15,1.23.22,1.84l.44,1.31c.2.96.41,1.91.61,2.87.2.49.39.97.59,1.46l-.02.47c.08,1.32.16,2.64.25,3.97.08.38.16.75.25,1.13.27.99.54,1.97.82,2.96.25,1.34.5,2.68.75,4.03.07.66.14,1.31.21,1.97.01.97.02,1.93.04,2.9.06.41.11.82.17,1.23.26.96.52,1.91.78,2.87l.17,2.95c.18,1.03.36,2.07.54,3.1.02.95.05,1.9.07,2.85.03.38.06.76.09,1.14.05.97.11,1.93.16,2.9.02.38.04.75.06,1.13.29,2.31.59,4.62.88,6.93l.2,5.95c.14,3.05.28,6.11.42,9.16.09.96.19,1.92.28,2.88-.27,10-.54,20.01-.82,30.01,0,.34-.01.68-.02,1.02,0,0-.18-.08-.18-.08-.02.38-.05.76-.07,1.14,0,1.79,0,3.59,0,5.38-.34,1.82-.68,3.64-1.02,5.46-.03.39-.06.79-.09,1.18l-.03,2.97c.04.45.07.9.11,1.34-.3.85-.6,1.69-.9,2.54-.03.38-.05.76-.08,1.14-.04.99-.09,1.99-.13,2.98l.12.39c-.26,1.18-.52,2.35-.78,3.53-.07.65-.14,1.3-.21,1.95-.33,2.03-.67,4.06-1,6.09-.1.17-.1.33,0,.5-.27,1.15-.53,2.31-.8,3.46l-.2,2.45c-.59,2.51-1.18,5.03-1.78,7.54-.17.63-.34,1.26-.52,1.89-1.5,6.04-3,12.08-4.5,18.12l-.74,1.99c-.52,1.57-1.08,3.13-1.55,4.72-5.2,17.51-12,34.41-20.14,50.72-17.65,35.35-40.15,67.22-68.85,94.55-4.92,4.68-9.9,9.3-14.85,13.95l.04-.03c-.37.33-.73.67-1.1,1l.03-.06c-1.31,1.04-2.62,2.08-3.93,3.13l.02-.02c-.35.34-.71.67-1.06,1.01l.04-.04c-.38.32-.75.64-1.13.96,0,0,.03-.06.03-.06-.96.72-1.92,1.44-2.89,2.17h.02c-.38.31-.77.64-1.15.96-.32.24-.64.48-.96.72-.99.75-1.99,1.5-2.98,2.26,0,0,.05-.03.05-.03-.43.33-.87.66-1.3.99-.54.39-1.09.78-1.63,1.16-.37.3-.75.6-1.12.89,0,0,.03-.05.03-.05-1.35,1-2.71,2-4.06,3l.02-.04c-2.98,2.04-5.96,4.08-8.94,6.12l.02-.02c-1.01.67-2.02,1.34-3.04,2.01,0,0,.03-.03.03-.03-.6.38-1.21.76-1.81,1.14,0,0-.11.05-.11.05-.38.28-.75.55-1.13.83,0,0,.03-.04.03-.04-1.03.66-2.05,1.32-3.08,1.97l.05-.05c-.65.38-1.31.76-1.96,1.13,0,0,.02-.02.02-.02-5.35,2.96-10.7,5.92-16.06,8.87-4.33,2.38-8.67,4.74-13,7.11l.03-.04c-2.98,1.37-5.96,2.73-8.94,4.1h0c-.48.09-1.01.1-1.45.29-20.16,8.96-41.02,15.82-62.51,20.76-1.35.31-2.7.62-4.05.93-4.6.86-9.21,1.72-13.81,2.58-.73.15-1.45.29-2.18.44-3.64.56-7.27,1.12-10.91,1.68-1.13-.91-2.18-.89-3.1.31-.31.03-.62.07-.92.12-.39.04-.77.07-1.16.11-.66.19-1.31.37-1.97.56l-2.85.12-1.12.08c-.97.1-1.95.21-2.92.31-1,.16-2,.32-3.01.47-.96,0-1.93.02-2.89.02-1.07.05-2.14.1-3.21.15-2.29.08-4.59.16-6.88.24-.7.02-1.4.04-2.09.07-8.32,0-16.64,0-24.96,0-.34-.02-.67-.03-1.01-.05-1.99-.08-3.97-.17-5.96-.25-1.33-1.24-2.72-1.21-4.17-.23-4.58-.5-9.17-1.01-13.75-1.51-.4-.03-.79-.06-1.19-.1-.63-.05-1.26-.1-1.89-.15-.38-.04-.76-.08-1.14-.12Zm34.01-600.96c-.38.29-.76.58-1.14.87,0,0-.02-.02-.02-.02-.62.39-1.24.78-1.86,1.18,0,0,.01-.02.01-.02-.62.43-1.23.86-1.85,1.29-8.43,6.25-14.33,13.13-15.35,18.16,10.43-5.37,18.77-12.76,25.43-22.11.25-.65.49-1.31.74-1.97-.98.24-1.96.48-2.94.72-.64.36-1.28.72-1.92,1.08-.38.28-.76.57-1.15.85l.03-.04Zm-173.72,265.85l.1.1-.04,1.48c-2.99,9.16-9.47,13.95-18.87,15.1-1.8.13-3.6.25-5.4.38-.47.08-.94.16-1.94.32,6.19,11.43,14.53,19.95,27,23.89.31.08.62.15.94.23.99.19,1.98.38,2.97.57.36,0,.73.01,1.09.02,1.13-.1,2.34.02,3.38-.34,6.32-2.19,11.56-6.07,16.07-10.92.92-.99,1.17-2.59,1.73-3.91-.43-.16-.86-.32-1.29-.48-.79,0-1.58,0-2.37.01-1.19.26-2.37.52-3.56.78-.27.11-.55.15-.84.13-1.33-.16-2.66-.33-4.55-.56,2.37-2.1,3.09-4.84,6.05-4.91.35,0,.91-.61.98-1.01.61-3.59,3.39-6.71,2.32-10.66l-.03.03c.32-.38.63-.76.95-1.14l-.07.03c2.65.4,2.15-1.44,2.11-2.96l-.04.03c.33,0,.71.12.97-.01,5.27-2.78,6.85-7.82,7.86-13.15.03-.15-1.03-.5-1.58-.76-.14-.25-.21-.51-.23-.8-.21-2.24.8-3.5,2.78-4.68,2.67-1.59,2.66-2.44,1.38-5.3-1.59-3.55-3.33-7.05-4.69-10.69-.46-1.22-.48-3.27.25-4.15,2.79-3.36,5.61-6.53,5.51-11.33-.02-.96.91-2.09,1.68-2.88,1.37-1.41,2.93-2.64,4.44-3.91,2.22-1.88,3.07-1.72,5.17.54,1.11,1.19,2.44,2.16,3.68,3.22.18.28.35.57.53.85-.14.35-.29.69-.43,1.04-1.49.59-1.21,1.63-.87,2.86,1.03,3.74,2.85,7.45.66,11.5,1.11.56,2.06,1.04,2.88,1.45.38,3.69-2.51,4.17-4.8,5.02,2.09,3.33,4.78-1.27,7.15,1.47-2.42,2.06-4.77,4.06-7.59,6.47,3.08,3.6,8.21,6.16,7.54,12.11,1.13.11,1.94.18,2.75.26l1.05,1.14c.93,3.26,1.86,6.52,2.79,9.78.13.31.16.63.09.95-.12,1.75-.25,3.51-.37,5.26,1.03,5.41,4.64,9.37,7.66,13.66l.93,1.13s0-.01,0-.01c.42.56.83,1.12,1.25,1.68l.11.13c.28.29.56.58.84.87l.12.14c.28.32.56.64.84.96l.06.06c.3.33.61.67.91,1l.02.03c.31.35.61.7.92,1.05,0,0,0,0,0,0-.14,1.33-.27,2.65-.35,3.4h-8.12c-.24-.03-.47-.1-.68-.23-.44-.26-.88-.52-1.32-.78-.56-.33-1.3-.53-1.67-1.01-2.42-3.15-5.37-2.63-8.46-1.34-3.38,1.41-4.55,3.36-3.03,6.61,1.52,3.25,3.46,6.44,5.81,9.14,7.81,8.97,17.74,14.74,29.06,18.21,1.02.31,1.99.79,3.28,1.3-2.68,5.09-6.33,8.08-11.63,8.95-.69.04-1.38.08-2.07.12-.66,0-1.34-.12-1.98-.01-2.56.42-5.74.27-6.65,3.29-.9,3,1.11,5.56,3.28,7.25,2.69,2.09,5.77,3.81,8.9,5.18,3.25,1.43,6.77,2.26,10.97,3.61-2.8,2.42-5.13,4.43-7.47,6.45-1.32.7-2.65,1.4-3.97,2.1.11.29.22.58.34.87,1.25-.11,2.49-.22,3.74-.34.63-.14,1.26-.27,1.89-.41.33-.09.66-.18.99-.27h.49s.49-.03.49-.03c.38-.04.75-.09,1.13-.13.58-.17,1.15-.34,1.73-.51.4-.09.81-.18,1.21-.26,1.62-.3,3.24-.59,4.87-.89.38-.04.76-.07,1.14-.11,1.24-.13,2.48-.27,4.17-.45-.31-3.04-.59-5.73-.87-8.42-.1-.41-.19-.81-.29-1.22-.69-3.98-1.38-7.96-2.07-11.94l-.21-1.1c-.28-.95-.42-1.97-.86-2.83-1.54-3.01-1.04-5.38,1.9-7.18.55-.34.95-.93,1.44-1.37,5.51-4.92,7.2-10.91,5.11-17.99-.14-.47-.16-.98-.23-1.47-.04-.36-.08-.72-.12-1.07-.29-1.98-.57-3.96-.86-5.93l-.1-1.09v-8.77c-.7-.08-1.03-.19-1.33-.14-.48.08-.94.26-1.42.4-.84.31-1.68.61-2.53.92-.57.13-1.13.25-1.7.38l-3.34-.2c-5.15-.67-8.39-3.63-10.1-8.43-.21-.72-.42-1.43-.63-2.15,0-.33-.06-.66-.02-.98.27-1.77-.94-4.47,1.9-4.77,2.26-.24,2.49,2.3,2.92,3.91.77,2.89,2.11,5.09,5.13,5.95.38.07.76.14,1.14.21.93.01,1.87.02,2.8.03.39-.07.77-.15,1.16-.22,3.93-1.01,7.49-2.93,9.94-6.05,4.42-5.63,10.21-8.6,16.95-10.15.38-.05.76-.09,1.14-.14,4.63.08,9.25.16,13.88.24.34.07.68.15,1.02.22,1.61.19,3.23.61,4.82.54,5.04-.2,10.08-.57,15.12-.88.41-.08.82-.16,1.23-.23,3.62-1.62,7.23-3.24,10.85-4.86.37-.24.75-.48,1.12-.72l-.06.05c.79-.33,1.57-.65,2.36-.98l1.58-.39c.43-.22.86-.44,1.29-.66h.38s.32-.19.32-.19l2.21-.84c.3.02.59.06.89.12,2.27,2.31,2.31,3.28.17,4.96-.38.3-.81.57-1.26.75-3.07,1.22-4.42,4.2-4.78,6.78-.41,2.89-1.39,5.36-2.47,7.93-.37.89-.77,1.88-.72,2.81.3,6.25.69,12.5,1.13,18.74.04.55.71,1.06,1.22,1.76.66-.2,1.26-.56,1.83-.53,1.05.06,2.74.05,2.99.6.44.98.39,2.59-.16,3.51-1.18,1.99-2.95,3.31-5.52,3.52-5.69.46-7.47,3.24-6.07,8.96.31,1.26.36,2.59.52,3.88-.32.06-.65.08-.98.06-.48-.3-.96-.6-1.43-.9-.22.65-.45,1.3-.67,1.95-.17.19-.19.39-.06.61l-.9,2.36c-.27,1.05-.54,2.09-.81,3.14-.05.96-.09,1.93-.14,2.89-.06.49-.12.98-.18,1.47-.27,1.18-.55,2.36-.82,3.53-.2.93-.39,1.86-.59,2.79.12.78.24,1.56.36,2.33l.16-.09c.3.39.59.78.89,1.18,0,0-.05,0-.05,0,1.04,1.03,2.07,2.06,3.11,3.08.65.59,1.3,1.18,1.95,1.77.38.34.75.68,1.13,1.02l-.04-.03c1.01.24,2.02.48,3.02.72,2.01-.04,4.02-.08,6.03-.13.32-.6.85-1.18.92-1.8.2-1.9.22-3.82.32-5.73l-.08.11c.58-.12,1.17-.25,1.75-.37,1-.32,2-.64,3.01-.96.94-2.69,1.87-5.38,2.82-8.11-2.25-1.49-3.99-2.63-5.72-3.78-.09-2.36,1.78-3.43,3.28-4.56,1.57-1.18,4.16-.56,4.46,1.26.6,3.59,2.89,3.4,5.43,3.23,1.53,1.16.15,2.07-.26,3.06l-.24.94c-.24,1.01-.48,2.02-.72,3.03,0,0,.02-.03.02-.03-1.23,2.46-2.19,5.12-3.78,7.33-1.52,2.12-3.69,3.77-5.77,5.82,1.31.08,2.43.15,3.55.22.58.23,1.16.65,1.74.65,7.2.04,14.4.03,21.6-.02.58,0,1.16-.43,1.73-.66,4.43.15,8.86.27,13.29.47,3.01.14,3.23-.06,3.07-3.8h-4.37c-1.05-.27-2.1-.53-3.15-.8-2.7-1.37-5.4-2.74-8.1-4.12.09-.64.17-1.28.26-1.92.97-.11,1.95-.23,2.92-.34.71-.18,1.42-.36,2.12-.53.5-.35,1.01-.71,1.51-1.06.5.09,1,.18,1.5.27,4.85-1.09,9.36-2.86,12.96-6.44.33-.3.66-.59.99-.89.35-.36.7-.72,1.05-1.09,0,0-.05.05-.05.05.34-.35.69-.7,1.03-1.05l-.04.04c.32-.36.64-.72.96-1.08h0c.95-1.34,1.9-2.67,2.85-4.01.23-.17.32-.4.27-.68.31-.8.61-1.6.92-2.39-.36,0-.73-.01-1.09-.02,0,0,.09.21.09.21l-3.6-.27c-.81-.28-1.63-.57-2.44-.85h0c-2.51-2.07-5.02-4.13-7.53-6.2-.07-.33-.24-.6-.5-.8-.28-.49-.55-.97-.83-1.46-.05-.84-.09-1.67-.14-2.51,6.2.2,11.61-1.42,15.85-6.63-5.06-1.89-8.86-4.65-10.83-9.44.67-.86,1.34-1.72,2.01-2.58.64-.06,1.28-.11,1.92-.17.36-.03.72-.07,1.07-.1,1-.36,2.01-.72,3.01-1.08h-.02c.7-.3,1.41-.61,2.11-.93l-.03.05,3.05-2.02s-.05.03-.05.03c.41-.35.81-.7,1.22-1.05.26-.28.53-.56.79-.84,2-1.5,3.16-3.51,3.68-5.34-3.29-1.1-6.31-2.01-9.26-3.13-1.39-.53-1.14-1.71-.54-2.8.33-.35.67-.69,1-1.04.72-.95,1.43-1.91,2.15-2.86l-.05.04c.29-.38.59-.76.88-1.14l.02-.03c.21-.03.42-.06.63-.08,1.43,0,1.37-.98,1.32-1.97,0,0-.04.05-.04.05.35-.68.7-1.36,1.05-2.04,0,0-.03.05-.03.05.38-.64.75-1.28,1.13-1.93.26-.87.51-1.74.77-2.61l.04-.4c.66-.88,1.61-1.67,1.92-2.66.76-2.44,2.37-3.98,4.38-5.42.69,1.57,1.25,2.82,1.8,4.08l.32.06.32-.06c.2.66.39,1.31.59,1.97.3,1.77.43,3.6.94,5.31,2.27,7.58,4.54,15.2,10.75,20.75.01.58.03,1.15.04,1.73-2.24.17-4.48.35-6.71.52-.3.08-.6.16-.9.24.16.19.32.37.48.56,4.04,5.29,10.11,5.53,16.2,6.21-2.56,7.83-7.29,12.31-16,11.88,2.56,5.79,5.84,9.97,12.58,9.67,1.48.27,3.19-.32,3.63,2.22.29,1.68,1.79,3.13,3.98,2.81,3.36-3.78,3.79-9.27,7.67-12.7.22-.2-.03-.94-.06-1.42v.06c.35-.35.69-.7,1.04-1.04h-.06c3.74-.41,5.72-3.45,8.04-5.76,1.21-1.2,2.33-3.56,1.99-5.05-.91-4.02-1.03-8.4-3.46-11.81-4.06-.53-2.72,3.15-4.05,4.74-2.85-.77-2.25-2.93-2.22-4.82,2.93-.27,1.61-2.56,1.93-4.07,1.42-1,1.41-2,0-3.01,1.09-2.67,2.18-5.34,3.19-7.8-1.26-1.67-2.25-2.98-3.24-4.28,0-.29,0-.59-.04-.88.26-.19.71-.33.76-.56,1-4.93,3.26-9.02,7.38-12.1,2.06-1.54,3.11-3.81,2.95-6.52-.1-1.66-.11-3.32-.15-4.98v.04c1.28.12,2.18-.23,2.13-1.72-.04-1.25-.09-2.5-.14-3.75l-.08-.39c1.75-.97,2.17-1.94.02-2.94l.05.1c.19-2.99.42-5.92,3.58-7.59.39-.21.18-1.54.25-2.33-2.53,1.06-4.71,1.98-6.88,2.89l-.05.06c.43-1.74.85-3.48,1.33-5.44-1.35-.85-2.67-1.68-4.02-2.54,3.12-4.87,7.6-7.62,12.32-10.19,2.29,1.9,3.67,4.71,2.37,7.01-1.76,3.09-.41,6.29-1.86,9.26,1.85.97,3.45,1.81,5.04,2.64.11.28.17.57.17.87-.33,1.81-.66,3.63-.99,5.44-.71.57-1.43,1.15-2.14,1.72-1.53,2.53-1.38,3.08,1.05,3.99.19.2.23.42.13.67.32,1.57-1.42,4.01,1.83,4.33.2.14.27.32.19.56.26.5.52,1,.77,1.51v8.09c1.34.74,2.26,1.25,2.8,1.55,0,1.92.09,3.3-.03,4.67-.11,1.24-.45,2.46-.69,3.69-2.13,2.14.18,3.41.98,4.97v-.02c.36.59.73,1.19,1.1,1.78l.11.13c.54.45,1.07.89,1.61,1.34l.03-.26-.08.25c.72.63,1.43,1.26,2.15,1.89l-.03-.04c1.04.64,2.08,1.28,3.12,1.92h-.01c1.68.3,3.35.61,5.03.91l.07.02c-.68,3.7-1.79,4.82-5.32,5.07-1.84.13-3.69.02-6.11.02,4.76,7.8,11.53,10.22,19.29,10.83.37,0,.74.02,1.11.03,1.99.1,3.98.2,6.73.35-3.44,5.77-7.82,8.33-13.43,9.07-1.79.11-3.59.22-5.38.33-2.94-.6-5.89-1.2-8.83-1.8-.33-.15-.66-.31-.98-.46.14.34.29.68.43,1.03,3.38,7.89,10.57,9.9,17.95,11.4,1.17.24,2.94-.71,3.93-1.64,5.06-4.75,10.26-9.42,14.8-14.64,2.88-3.31,4.98-7.42,6.89-11.42,2.26-4.73.99-7.37-3.97-8.45-2.47-.54-5.19-.19-7.76.1-1.77.2-3.48,1.01-5.21,1.55l-2.21.67c-3.06.18-6.12,2.03-9.57.09.97-1.19,1.74-2.15,2.52-3.11.34-.35.68-.69,1.02-1.04.61-.67,1.22-1.34,1.83-2.01l.11-.14c.43-.55.86-1.11,1.28-1.66l-.07.06,1.12-1.1c3.09-2.73,5.54-5.9,6.83-9.87,1.59-2.58,2.26-5.3,1.23-8.27-.15-1.97-.31-3.95-.46-5.92-.58-2.08-1.16-4.17-1.74-6.25-.32-1.43-.63-2.86-.95-4.29,4.42-2.87,8.3-6.25,11.56-11.6-2.94.19-4.91.56-6.83.38-1.82-.18-4.35-.06-3.82-3.24,2.9-3.76,6.24-7.26,8.61-11.33,5.71-9.77,8.81-20.57,11.09-31.6.05-.38.1-.76.15-1.13.27-1.59.55-3.19.82-4.78.07-.4.14-.8.21-1.2.36-2.32.72-4.63,1.08-6.95.03-.37.06-.74.08-1.1.22-1.27.44-2.54.66-3.81l.17-2.15c-.43-1.71-.54-3.59-1.35-5.1-7.91-14.92-15.96-29.77-23.91-44.67-5.21-9.77-10.33-19.59-15.49-29.39-.51-.88-1.02-1.77-1.68-2.93-4.44,3.87-8.5,7.4-12.56,10.93-3.14,2.4-6.29,4.8-9.72,7.43-1.03-1.59-2.11-3.05-2.97-4.63-10.13-18.68-20.26-37.37-30.34-56.08-5.66-10.5-11.25-21.04-16.86-31.57-.35-.67-.7-1.34-1.04-2.01-.32-.66-.64-1.32-.97-1.99-.27-.4-.55-.79-.82-1.19v-.07c-.39-.75-.8-1.5-1.21-2.24-1.75-1.46-3.14.08-4.49.71-6.74,3.16-13.43,6.43-20.09,9.75-.94.47-1.65,1.41-2.46,2.14-1.94-1.12-3.89-2.24-6.15-3.54-44.48,41.09-88.95,82.18-133.62,123.44-.89-1.33-1.63-2.41-2.36-3.51-6.59-9.98-13.18-19.96-19.77-29.93-.42-.81-.85-1.63-1.6-3.06-2.08,2.69-3.83,4.94-5.57,7.19-1.19,1.15-2.48,2.22-3.57,3.46-8.54,9.78-16.95,19.66-25.56,29.37-17.56,19.8-35.22,39.51-52.83,59.27-2.91,3.27-5.74,6.61-9.16,10.55,4.75,1.26,8.84,2.35,13.15,3.5-4.27,7.89-9.74,14.35-20.22,14.53.44,1.23.6,2.04.99,2.7,3.45,5.79,9.08,8.54,15.12,10.68.39.09.78.18,1.17.27,3.31.26,6.61.53,9.95.8-1.61,7.95-9.58,16.15-16.69,16.6-1.18-.26-2.43-.92-3.27.61,4.41,6.39,10.6,10.12,17.98,12.08.6.99,1.28,1.16,2.06.19,1.3,0,2.6,0,3.91,0,.41.15.82.29,1.24.44Zm430.68,3.22l.06-.06c-.39.4-.78.79-1.16,1.19-.15.23-.27.47-.37.73-.47.11-.94.23-1.41.34-.4.26-.81.53-1.21.79-.3-.05-.56.03-.79.24-.38.24-.76.48-1.15.72l.08-.06c-1.13.35-2.27.69-3.4,1.04-.51.05-1.01.09-1.52.14-.3-.12-.61-.18-.93-.18-1.08-1.07-2.11-1.04-3.09.14-2.96-.19-5.6.61-7.81,2.61-1.32,1.19-1.62,2.5,0,3.75.17.2.32.42.45.65.45.7.89,1.4,1.34,2.11l-.02-.03c.33.39.66.79.99,1.18.61.62,1.22,1.24,1.84,1.87.4.33.8.66,1.2.99l-.04-.03c.36.31.72.61,1.08.92.63.43,1.26.87,1.89,1.3,1.03.63,2.07,1.25,3.1,1.88.61.31,1.23.61,1.84.92.72.31,1.44.62,2.16.93,1.68.6,3.36,1.21,5.04,1.81.27.17.56.29.88.34-.04.49-.08.98-.12,1.47q-2.07.37-1.78,1.37c.74.2,1.48.4,2.22.6,1.28.19,2.8.76,2.6-1.54.42-.25.85-.51,1.27-.76,2.26.11,4.52.21,6.78.32.72-.18,1.44-.37,2.16-.55,1.52-.2,2.83-.66,3.03-2.77-1.64-1.37-3.36-2.81-5.09-4.26-.29-.35-.58-.7-.87-1.04-.4-.66-.8-1.32-1.2-1.98.08-.3.09-.6.01-.9l-.43-2.16c0-.22-.11-.32-.33-.32,3.94-.26,7.87-.51,11.81-.77.7-.2,1.41-.4,2.11-.6,2.3-.37,3.81-1.67,4.71-3.98-1.64-.39-3.21-.76-4.79-1.13-.22-.2-.49-.27-.78-.22-.4-.27-.8-.53-1.2-.8-.14-.22-.33-.31-.59-.27-.45-.34-.9-.67-1.35-1.01l.07.05c-.37-.32-.74-.65-1.11-.97l.03.03c-1.62-1.68-3.25-3.35-4.87-5.03-.9-1.89.53-2.31,1.79-2.84.66-.1,1.32-.2,1.97-.29.69-.24,1.39-.47,2.08-.71,2.04-.04,3.72-.82,5.52-2.38-5.26-4.83-10.24-9.41-15.23-14l-.29.21.26-.24c-.76-.91-1.52-1.82-2.28-2.73-11.06-13.27-22.12-26.54-33.18-39.8-1.33-2.08-2.18-4.55-5.02-6.43.58,3.42,2.05,5.52,3.73,7.52,1.13,1.76,2.35,3.46,3.34,5.29.58,1.06.78,2.33,1.15,3.5-1.34-.02-2.68-.05-4.02-.07-.77-.14-1.53-.27-2.3-.41-2.57-.13-5.13-.26-7.7-.4-.42.22-.84.45-1.26.67-.3.39-.61.77-.91,1.16-.05.36-.11.72-.16,1.08-.15,4.62,1.58,8.77,3.44,12.82,5.21,11.29,12.29,21.13,22.79,28.17,2.37,1.26,4.74,2.52,7.11,3.78l1.54.34,1.43.84c1.02.3,2.04.6,3.06.9,1.01.37,2.02.74,3.03,1.11-.12.92-.24,1.83-.36,2.75l.08.03c-.31.38-.63.77-.94,1.15Zm6.29,68.23l-.04.04c.67-.36,1.34-.72,2.02-1.07,0,0-.01.04-.01.04l3.9-2.14.91-1.34c-.38-.11-.75-.23-1.13-.34-1.94-.12-3.87-.24-5.81-.36-.16-.18-.36-.23-.6-.16-.46-.23-.92-.45-1.39-.68-.35-.34-.71-.67-1.07-1-.62-.42-1.25-.83-1.87-1.25-.42-.27-.83-.53-1.25-.79l.05.04c-.02-1.47-.03-2.94-.05-4.42l-.07.05c1.46-.04,3.22,1.18,4.19-.97.36-.3.71-.6,1.07-.9.7-.28,1.39-.55,2.09-.83l-.05.04c.8-.32,1.59-.65,2.39-.97l.31.02.25-.18c.68-.32,1.36-.65,2.04-.97,3.31-1.13,5.94-3.15,7.96-5.99,1.93-1.31,3.17-3.1,4.17-5.74-8.93,2.51-16,.1-21.84-6.4-4.43,4.66-9.85,7.35-15.52,9.67-.61.19-1.23.37-1.84.56-.83.24-1.66.48-2.5.72-1.16.06-2.33.12-3.49.19-4.26-.56-8.52-1.12-13.81-1.82,2.61,3.81,4.71,6.87,6.81,9.94,4.96,7.59,11.39,13.45,19.86,16.92.71.32,1.43.65,2.14.97l.25.16.3-.02c.81.29,1.61.58,2.42.88,1.39.13,2.78.26,4.17.39,1-.44,1.99-.88,2.99-1.32l-.04.05c.69-.34,1.38-.68,2.07-1.01Zm-512.2-42.25s-.04.03-.04.03c.68-.36,1.36-.72,2.04-1.08,1.62-1.12,3.23-2.27,4.88-3.37,7.44-4.97,12.58-11.75,15.69-20.08.36-.96.32-2.08.46-3.11-.74-.12-1.08-.28-1.36-.21-8.72,2.37-16.74,1.04-23.99-4.49-.37-.28-.92-.34-1.38-.5-.97.08-2.27-.22-2.84.3-2.8,2.53-5.48,5.21-8.01,8.01-.51.57-.22,1.87-.29,2.84-.2.59-.39,1.18-.59,1.77-.48.28-.97.55-1.75.99,1.68.8,3.18,1.13,4.12,2.03,2.79,2.67,5.18,5.64,4.11,9.96l-1,1c-2.46.21-3.78,1.55-4.01,4-.33.33-.66.67-.99,1-.13.15-.29.2-.48.15-.82.33-1.64.66-2.45.99l.08-.05c-.42.26-.83.52-1.25.78-.91.72-1.82,1.45-2.73,2.17.95.65,1.89,1.3,2.84,1.95l.45-.11c0,.64-.01,1.29-.02,1.93-.41.38-.82.75-1.24,1.13.57.35,1.14.7,1.7,1.04.61,1.79,1.08,3.66,1.9,5.35.4.81,1.48,1.29,2.25,1.91,1.72,1.04,3.4,1.43,4.95-.29l.34-.17.38.06c3.29.3,6.82-.05,9.73,3.57-4.11.21-4.55,3.05-5.28,5.59,1.87,3.22,2.52,7.04,5.52,9.61.61.52.24,2.2.31,3.34-.31.33-.61.66-.92.99-.71.72-1.43,1.44-2.24,2.26,2.38.86,4.27,1.55,6.13,2.23-.67,2.5-2.14,2.66-3.68,2.54-1.76-.13-2.38.77-2.38,2.35-.62-.05-1.24-.11-1.87-.16-.88-1.77-1.92-1.7-3.05-.24,0,0,.1.35.1.35-.36.23-.72.46-1.08.7-1.01,3.17-.13,5.25,2.96,7.02,1.02,2.5,2.64,3.58,5.39,2.54,1.85-.7,3.92-.9,5.66-1.78,4.97-2.51,10.31-4.61,13.31-9.82l.52-.48c-.11-.09-.29-.26-.31-.24-.19.17-.35.37-.51.56-.36,0-.72-.02-1.08-.03-1.19-1.08-2.23-1.21-2.99.46,0,0-.41-.07-.41-.07-1.95-.1-3.97.05-5.83-.42-1.01-.25-1.77-1.54-2.64-2.36.81-.7,1.57-1.96,2.43-2.02,3.73-.26,5.73-2.63,7.48-5.45,2.53-1.99,5.12-3.9,7.57-5.99,1.46-1.25,2.21-2.84.85-4.64-2.14-.63-3.84-.15-5.54,1.17-1.78,1.38-3.85,2.41-5.79,3.59-.36.32-.71.64-1.07.96h-.02c-.65.36-1.3.72-1.96,1.07h.02c-1.27-.13-2.54-.26-3.86-.38.39-7.51,4.8-11.3,10.95-13.51,1.16.62,2.2,1.17,3.31,1.76v-6.66c-1.75-1.58-3.77-3.4-6.08-5.48-1.87,1.06-3.84,2.18-5.74,3.26-4.82-2.77-9.27-1.75-13.62.86-.37-.19-.74-.38-1.1-.57-.1-1.44-1.07-1.32-2.06-1.14,0,0,.03.04.03.04-.67-.35-1.34-.71-2.02-1.06v.04c.08-2.59.01-5.22,2.19-7.17,1-.34,1.99-.67,2.99-1.01.64-.39,1.27-.78,1.91-1.16l-.05.04c.69-.33,1.39-.66,2.08-.99Zm225.04,134.09l-.03-.16c.85-.23,1.71-.45,2.56-.68,3.13-.31,6.26-.63,9.39-.94,1.09,1.01,2.14.99,3.14-.12,8.39-.46,16.7.18,24.92,1.92.38.1.77.21,1.15.31,17.37,4.07,31.92,12.87,43.15,26.69,3.77,4.64,7.89,8.32,13.36,10.7,6.47,2.82,11.94,7.15,16.71,12.31,10.82,11.7,21.55,23.48,32.36,35.19.84.91,2.05,1.48,3.09,2.21.38-.16.75-.32,1.13-.49.74-.56,1.49-1.11,2.41-1.8-1.06-1.44-1.85-2.71-2.83-3.81-10.1-11.27-20.16-22.59-30.4-33.73-5.3-5.77-11.14-11.01-18.18-14.62-5.86-3-10.62-7.09-14.99-12.07-14.51-16.55-32.85-25.98-54.86-28.04-.42-.09-.84-.17-1.25-.26-6.64-.77-13.26-.81-19.85.48-1.18.25-2.35.49-3.53.74-1.16.07-2.32.14-3.48.21l.11-.2-1.13.11c-.82.28-1.64.55-2.47.83-1.17.13-2.34.26-3.51.39-.33-.16-.65-.13-.95.09-1.34.3-2.69.6-4.03.9-1.32.36-2.64.71-3.95,1.07-3,.99-6,1.98-9,2.97-9.32,2.87-18.64,5.74-27.96,8.61-.72,0-1.44.02-2.16.02-2.56-.09-5.13-.18-7.69-.27-.43.11-.86.21-1.29.32-.98.18-2.01.21-2.92.56-4.62,1.79-9.11,4.03-13.84,5.43-11.54,3.39-22.28,8.5-32.69,14.38-9.5,5.37-18.85,11.03-28.32,16.59,1.04,1.64,1.78,2.82,2.44,3.86,1.81-.94,2.7-1.36,3.54-1.85,9.45-5.52,18.83-11.18,28.38-16.54,7.67-4.31,15.75-7.67,24.39-9.7,3.65-.86,7.25-2.37,10.56-4.17,4.5-2.45,9.13-3.14,13.96-2.05,5.6,1.27,10.88.45,16.04-1.68,8.25-3.4,16.47-6.88,24.7-10.32,4.23-1.04,8.46-2.07,12.68-3.11.38-.09.77-.19,1.15-.28Zm-126.86-94.09l-.07-.04c-1.04-.23-2.09-.46-3.13-.69-.99-.03-1.99-.06-2.98-.09l-2.57-.57c-.47-.16-.94-.31-1.41-.47-1.84-1.2-4.36-1.67-5.01-4.66,1.73-.3,3.31-.57,4.9-.84.74-.15,1.48-.3,2.22-.45,6.05-.1,11.03-2.5,15.01-7.02.63-.73,1.25-1.47,1.88-2.2-.2-.24-.4-.49-.6-.73-.84.54-1.68,1.08-2.52,1.62-1.12.3-2.24.84-3.35.84-3.59,0-7.37.48-10.71-.49-3-.88-5.67-1.35-8.61-.47-.41.09-.82.19-1.23.28-1.78.35-3.6.58-5.34,1.07-3.8,1.07-4.64,2.86-2.56,6.12,1.13,1.76,2.71,3.54,4.52,4.5,3.31,1.77,6.94,2.95,10.44,4.37.68.19,1.35.38,2.03.58l2.89.24c2.01.05,4.02.1,6.03.14,1-.18,1.19-.51.18-1.04Zm122,42.55c-.39.16-.78.33-1.18.49-1.09.12-2.18.24-3.27.36.02.17.04.35.05.52h15.31c2.97.07,5.93.15,8.9.22,1.01,1.1,2.06,1.14,3.16.13,1.29.21,2.58.52,3.88.6,11.5.65,22.79,2.66,33.98,5.24.42.11.85.22,1.27.33,15.73,4.15,30.43,10.5,43.1,20.88,10.22,8.37,18.97,18.15,26.61,28.94,1.42,2.01,2.92,4.34,4.97,5.44,5.58,3.01,9.49,7.59,13.7,12.11,13.58,14.6,27.52,28.86,41.63,43.58,1.15-.81,2.42-1.7,4.04-2.84-4.11-4.92-7.77-9.65-11.8-14.03-10.15-11.02-20.45-21.89-30.73-32.79-2.85-3.02-5.44-6.55-8.87-8.7-4.11-2.57-7.11-5.89-9.93-9.6-1.71-2.25-3.45-4.48-5.27-6.64-16.54-19.67-36.17-34.67-61.71-40.7-.37-.1-.74-.21-1.11-.31-2.31-.54-4.62-1.07-6.93-1.61-.86-1.38-2.02-1.05-3.2-.57-.61-.13-1.23-.26-1.84-.38-1.53-1.7-3.35-.98-5.12-.6-2.58-.2-5.16-.4-7.74-.61-.65-.95-1.35-1.07-2.11-.12-6.92-.04-13.85-.08-20.77-.11-2.11-.98-4.18-1.09-6.19.24-.64.06-1.28.11-1.92.17-3.63.12-7.27.24-10.9.36Zm141.08-18.03c-1.21-.13-2.42-.26-3.63-.38-.04.3-.08.59-.12.89,1.2.31,2.41.61,3.61.92,2.63.04,5.27.24,7.88.08,2.82-.16,5.42-.98,6.8-4.31-2.36-.61-4.2-1.47-6.37.55-1.3,1.21-3.49,1.46-5.27,2.15-.42,0-.84.02-1.26.03-.55.02-1.1.05-1.65.07Zm50.69-30.51c.56-.07,1.12-.13,1.68-.2-.02-.19-.04-.37-.05-.56-.59.04-1.18.08-1.77.12-4.3-.18-8.56-.56-12.74-3.12,2.01,7.05,2.86,7.59,8.52,5.73,1.51-.49,2.91-1.31,4.36-1.98Zm-327.92,44.14c-2.64-1.67-5.28-3.35-7.91-5.02,1.61-.26,3.22-.51,4.83-.77.38-.08.75-.15,1.13-.23,5.84-.8,11.17-2.91,15.78-6.56,5.64-4.47,10.23-9.84,13.14-16.51,1.18-1.22,1.18-1.25-.11-1.73-.58.17-1.17.34-1.75.5-.37.08-.75.16-1.12.24-2.11-.27-4.45-.05-6.27-.92-3.49-1.66-5.64-.71-8.04,2.03-3.53,4.04-8.01,6.89-13.41,7.88-8.23,1.5-16.07.51-23.33-3.89l-1.74-.53c.32.76.64,1.53.96,2.29,4.67,8.12,10.84,14.81,18.82,19.77,2.55,2.42,5.65,3.66,9.07,4.23,4.49,1.08,8.95,2.38,13.49,3.17,3.71.64,5.04-.42,6.18-4.07-2.28.2-4.39.38-6.5.56-.43.12-.86.24-1.29.37-3.97-.26-7.95-.53-11.92-.79Zm116.8,29.28c1.51,1.21,2.91,1.01,4.21-.33,3.05-.98,6.09-1.97,9.69-3.13-10.2-5.7-18.81-5.61-25.63.18,4.1,1.15,7.91,2.22,11.72,3.28Zm-122.74,4.74c3.28-1.21,6.87-1.72,10.05-3.96-11.33-5.51-19.66-5.32-24.88.34,4.14,2.27,8.92,3.61,13.67,3.83.38-.07.77-.14,1.15-.21Zm339-57.15c-.4-.08-.81-.17-1.21-.25-1.42-.43-3.04-.56-4.22-1.34-3.4-2.25-6.08-.66-9.07.97,2.29,3.96,5.37,6.71,8.71,9.2,7.53,5.62,9.75,5.42,16.24-1.39.11-.12.24-.23.35-.36,1.96-2.25,1.76-3.61-.92-5.09-.84-.46-1.89-.55-2.84-.81-.44-.13-.88-.27-1.32-.4-1.9-.18-3.8-.35-5.7-.53Zm-69.96-14.97c3.4,5.42,8.11,9.42,13.66,12.47,7.7,4.22,6.48,6.06,13.32-2.34,1.29-1.21,1.27-1.46-.14-1.92-2.6.52-5.19,1.03-7.79,1.55-.39.08-.78.16-1.17.24h-4.01c6.03-7.86,6.77-9.37,6.75-14.04-2.44,0-5.1.6-7.3-.14-3.51-1.17-6.33-.31-9.22,1.36l-4.21.72c-.1.37-.19.73-.29,1.1.13.33.27.66.4.99ZM196.41,143.13c1.91-.9,4.03-1.51,5.69-2.73,10.04-7.37,18.35-16.37,24.78-27.05,1.31-2.18,2.27-4.57,3.89-7.91-4.27,1.7-6.93,3.57-9.33,5.79-7.61,7.01-14.74,14.47-20.57,23.05-1.83,2.7-3.15,5.75-4.7,8.64-.1.27-.19.53-.29.8.17-.19.34-.39.52-.58Zm68.62,291.79c.03.36.06.71.09,1.07.99,4.61,1.98,9.23,3.06,14.22,5.03-.62,9.42-1.17,13.81-1.72.76-.15,1.52-.3,2.27-.45,2.28-.29,4.57-.59,6.85-.88.72-.04,1.43-.09,2.15-.13.57-.15,1.15-.29,1.87-.47-4.49-5.31-9.19-10.04-15.05-13.18-4.68-2.5-6.9-5.64-5.68-10.91-.45.1-.9.19-1.35.29-3,2.01-6.42,3.56-7.97,7.17-.04.36-.09.72-.13,1.08l.07,3.91Zm34.21-30.97c-.39-.09-.79-.19-1.18-.28l-2.62-.4c-.37.59-.74,1.17-1.11,1.76-.46,1.57-.86,3.15-1.39,4.7-1.59,4.66-3.1,9.35-4.91,13.92-1.07,2.69-.55,4.84,1.37,6.71,5.19,5.06,10.45,10.05,15.69,15.07.42.06.84.12,1.26.18.94-.16,1.87-.32,2.81-.48.37-.03.75-.05,1.12-.08,3.85-.37,7.7-.74,12.7-1.22-2.54-2.07-4-3.77-5.85-4.67-3.28-1.61-3.81-4.05-3.59-7.35.36-5.28.3-10.58.42-15.87,0-1.98,0-3.96,0-5.94,0-.68.02-1.36.03-2.04l-.69-1.14-2.07-.53c-.33-.05-.65-.09-.98-.14-.33-.08-.65-.15-.98-.23l-1.19-.25c-2.94-.58-5.89-1.15-8.83-1.73Zm-2.94,171c-.03,2.5-.12,5-.08,7.5.12,8.36,2.66,16.11,7.8,22.52,10.9,13.61,25.97,18.31,42.64,13.19,11.42-3.5,19.12-11.23,23.79-22.29,2.26-5.36,2.79-10.77,2.89-16.44.18-10.89-3.87-20.16-11.15-27.82-8.02-8.45-18.09-12.58-29.95-11.6-1,.02-2,.05-3.01.07-2.67.78-5.35,1.53-8.01,2.35-4.65,1.44-8.68,3.89-12.01,7.45-.34.36-.68.72-1.03,1.09-7.19,5.89-10.67,13.59-11.04,22.78-.28.4-.55.8-.83,1.2Zm-71.99-4.59c8.19,6.02,24.5,5.36,25.6-.64-8.62-4.74-17.08-4.26-25.6.64Zm380.42-135.77c-5.3,1.76-9.68,3.04-13.92,4.69-3.04,1.18-3.59,4.17-1.52,6.99,1.95,2.64,4.74,3.91,8.3,4.92,2.34-5.43,4.58-10.64,7.14-16.59Zm-118.34,92.39c5.44,5.53,19.51,5.48,24.66-.09-7.83-5.07-17.31-5.04-24.66.09Zm-373.28-26.68c7.9,5.44,18.49,5.49,25.04.13-8.35-4.98-16.6-5.45-25.04-.13Zm42.35,23.56c-8.95-4.81-19.21-4.4-24.82.8,8.89,4.85,20.82,4.62,24.82-.8Zm330.12-21.89c-10.01-5.18-16.81-5.06-23.4.36,7.79,3.47,15.37,4.91,23.4-.36Zm-255.64-28.01c10.19,4.56,16.97,4.39,23.16-.34-6.49-4.64-14.73-5.21-23.16.34Zm40.99,127.7c-9.55-5.56-17.9-5.37-22.58.54,7.63,3.82,15.1,4.24,22.58-.54Zm-171.66-147.38c7.39,4.37,14.14,4.13,21.36-.4-7.45-4.48-14.19-4.28-21.36.4Zm451.42-1.2c-1.11,2.68.11,4.52,1.44,6.17,2.52,3.14,5.68,5.4,9.54,6.74,4.98,1.73,9.96.7,15.03.54-9.26-.07-16.37-4.3-22.38-10.88-.95-1.04-2.34-1.68-3.63-2.58Zm-365.21,31.52c4.93,4.02,12.46,4.82,17.59.29-4.17-3.94-10.44-4.04-17.59-.29Zm-35.02-312.13c6.64-4.02,12.16-11.78,12.27-16.81-6.37,4.22-10.23,9.85-12.27,16.81Zm109.78,382.74c5.44,3.54,10.61,2.84,15.94-.07-4.14-4.2-10.18-4.18-15.94.07Zm-175.73-97.27c3.14,8.46,9.64,10.3,18.11,4.77-3.6-.46-6.53-.52-9.28-1.26-2.92-.79-5.67-2.23-8.82-3.51Zm364.29,2.39c-5.82-3.55-12.61-3.43-17.08.28,5.75,3.4,11.42,3.14,17.08-.28Zm-288.4,44.51c6.29,2.86,11.59,3.04,17.22-.01-5.78-3.56-11.13-3.91-17.22.01Zm370.87-9.35c-5.77-3.75-10.53-3.52-15.71.79,5.42,1.76,10.59,2.61,15.71-.79ZM86.07,334.28c5.08-.31,8.45-2.88,11.22-6.25,1.7-2.07,1.41-2.71-1.46-4.96-3.25,3.74-6.5,7.47-9.76,11.21Zm460.4,173.76c4.93,1.54,9.88,3.79,14.79-.68-5.25-3.54-10.07-2.69-14.79.68Zm-350.84,50.3c5.77,2.2,10.68,3.68,15.72-.35-4.71-2.87-10.54-2.86-15.72.35Zm338.33-27.4c5.28,2.8,9.98,2.69,15.15.03-5.14-3.6-9.87-3.75-15.15-.03Zm-133.49,74.63c5.21,2.4,9.98,3.34,15.16-.79-5.44-2.41-10.14-2.81-15.16.79ZM112.73,477.05c-5.4-3.12-9.89-3.03-14.89-.03,5.07,2.87,9.58,2.53,14.89.03ZM272.59,79.16c-5.24,1.18-7.91,5.03-10,9.5,4.66-1.7,7.7-5.2,10-9.5Zm255.67,467.22c-4.69-2.96-8.72-3.06-12.81.05,4.19,2.14,7.55,2.16,12.81-.05Zm-62.69-241.97q2.94.84,2.1-2.06c-.7.69-1.4,1.37-2.1,2.06Zm87.19-24.18l-.19.33.3.04-.11-.36Z"/><path class="cls-11" d="m17.54,233.96c1.98,2.31,3.97,4.63,5.8,6.77-.42,3.08-3.38,5.33-1.27,8.29-1.28,2.45-2.02,5.54-3.98,7.16-1.82,1.5-1.23,2.86-1.08,5.04-2.01-1.27-3.3-3.5-5.92-1.22.47.85.92,1.97,1.63,2.9,1.01,1.31,2.57,2.3,3.25,3.73,2.77,5.85-.15,10.52-6.87,11.34-.47.06-.93.22-1.88.45,2.42,3.11,4.56,6.14,4.08,10.14-.06.54.42,1.24.82,1.73,3.22,3.86,3.44,8.16,2.57,12.94-.82,4.5-1.94,9.09-2.13,13.52-.16,3.66-.81,6.46-2.77,9.37-.95,1.41-1.45,3.41-1.44,5.14.04,5.44.45,10.88.67,16.31.11,2.65.27,5.31.15,7.96-.21,4.65-.61,9.29-.94,13.93-.13,1.72.47,3.06,1.39,4.57,2.88,4.72,6.71,8.89,8.02,14.58.88,3.8,2.71,7.37,3.89,11.11.78,2.48,1.47,5.06,1.64,7.64.5,7.92.54,15.86,1.15,23.77.3,3.87,1.46,7.67,2.22,11.51.25,1.28.62,2.55.67,3.84.09,2.64-.23,5.26,1.95,7.43.88.88,1.09,2.11.41,3.63-.94,2.08-.44,4.18,1.51,5.79,1.8,1.48,3.1,3.27,3.77,5.64.48,1.69,1.74,3.15,2.61,4.75.63,1.15,1.68,2.36,1.66,3.53-.07,5.82,3.81,9.77,6.03,14.57,2.59,5.58,7.91,9.33,9.33,15.49.19.84,1.13,1.88,1.95,2.15,3.55,1.19,3.71,4.74,3.33,6.9-.53,3.03.98,4.85,2.25,6.66,2.26,3.23,5.09,6.07,7.79,8.98,3.51,3.78,6.61,7.66,7.66,13,.41,2.1,2.32,3.91,3.74,6.16-.25,1.16-.57,2.69-.98,4.58,1.78-.28,3.1-.49,4.83-.76-.71,1.84-2,3.51-1.61,4.53.98,2.54,2.67,4.83,4.22,7.13.42.62,1.71.75,1.98,1.38,2.55,6.02,9.12,8.45,12.31,13.96,1,1.73,3.49,2.59,5.5,3.6,2.19,2.94-.42,5.13-1.54,7.66-4.26-4.26-8.53-8.53-12.79-12.79-.35-.44-.71-.87-1.06-1.31l.04.06c-.34-.35-.69-.7-1.03-1.05l.05.04c-.34-.36-.69-.71-1.03-1.07l.06.05c-.37-.36-.75-.73-1.12-1.09-2.29-2.58-4.59-5.15-6.88-7.73-.37-.43-.73-.86-1.1-1.29-1.21-1.16-2.42-2.31-3.64-3.47.01-.29-.11-.49-.37-.6-.14-.29-.22-.63-.41-.87-9.33-11.36-17.75-23.37-25.59-35.81-.77-1.23-1.75-2.33-2.63-3.48h.05c-2.63-4.65-5.25-9.31-7.88-13.98-.71-1.31-1.43-2.62-2.14-3.93-.6-1.35-1.19-2.71-1.81-4.06-3.45-7.52-7.05-14.98-10.32-22.58-7.67-17.81-13.34-36.29-17.79-55.15-.08-.38-.16-.77-.24-1.15-.53-2.57-1.07-5.14-1.6-7.71-.11-.44-.23-.87-.34-1.31-.07-.3-.12-.61-.13-.92-.05-.39-.1-.78-.16-1.16-.63-3.6-1.25-7.2-1.88-10.8-.04-.41-.09-.83-.13-1.24-.61-4.27-1.22-8.53-1.83-12.8-.04-.38-.08-.76-.12-1.14-.29-2.96-.57-5.92-.86-8.88-.03-.37-.06-.73-.09-1.1-.34-4.95-.68-9.91-1.02-14.86-.03-.39-.06-.77-.1-1.16.09-11.29.18-22.59.27-33.88.03-.7.05-1.39.08-2.09.57-6.28,1.14-12.57,1.71-18.85l.07-1.13c.07-.96.13-1.91.2-2.87.05-.41.09-.82.14-1.23.28-1.93.56-3.86.84-5.79l.14-1.17c.11-.57.23-1.13.34-1.7.1-.42.21-.84.31-1.26.72-4.3,1.45-8.59,2.17-12.89l.3-1.22c.56-2.6,1.12-5.19,1.69-7.79.09-.4.19-.8.28-1.2,3-10.61,5.99-21.21,8.99-31.82Zm.72,15.15c.57-1.82.97-2.42.84-2.86-.13-.43-.79-.69-1.22-1.03-.18.57-.46,1.14-.49,1.73-.02.41.31.83.87,2.16ZM1.29,368.88c1.48.59,1.85.74,2.23.89.13-.38.33-.77.35-1.16,0-.11-.48-.39-.72-.37-.42.05-.82.26-1.86.64Z"/><path class="cls-17" d="m410.24,679.05c-.67-.04-1.35-.08-2.02-.12,1.35-.31,2.7-.62,4.05-.93-.09.27-.19.54-.3.81-.58.08-1.16.16-1.74.23Z"/><path class="cls-17" d="m313.1,685.67c1.45-.97,2.85-1.01,4.17.23l-4.17-.23Z"/><path class="cls-16" d="m264.33,678.92c-.05-.27-.11-.53-.19-.79,1.04.28,2.07.55,3.11.83-.97-.01-1.94-.02-2.91-.03Z"/><path class="cls-5" d="m286.24,3.99c-1.11.23-2.22.47-3.32.7,1.11-.23,2.22-.47,3.32-.7Z"/><path class="cls-16" d="m666.24,261.95c-.29-1.03-.57-2.05-.86-3.08.27.09.53.16.81.21.09.64.18,1.28.26,1.92-.06.32-.13.63-.21.94Z"/><path class="cls-16" d="m324.27,0c-1,1.08-2.06,1.14-3.17.17,1.06-.06,2.11-.11,3.17-.17Z"/><path class="cls-17" d="m281.05,681.52c.73.15,1.45.29,2.18.44-.73-.15-1.45-.29-2.18-.44Z"/><path class="cls-16" d="m272.22,679.97c.74.14,1.49.28,2.23.42-.74-.14-1.49-.28-2.23-.42Z"/><path class="cls-7" d="m351.3.11c-.74.91-1.44.9-2.09-.1.7.03,1.39.07,2.09.1Z"/><path class="cls-7" d="m379.48,2.38c-.76-.11-1.52-.22-2.29-.32.76.11,1.52.22,2.29.32Z"/><path class="cls-17" d="m258.39,9.27l-2.17.67,2.17-.67Z"/><path class="cls-16" d="m248.22,11.95c-.71.22-1.42.45-2.12.67.71-.22,1.42-.45,2.12-.67Z"/><path class="cls-17" d="m675.09,371.05c.02-.38.05-.76.07-1.14-.02.38-.05.76-.07,1.14Z"/><path class="cls-17" d="m672.35,295.87c.26.1.52.18.79.25-.21.33-.41.66-.62.99-.06-.41-.11-.82-.17-1.23Z"/><path class="cls-17" d="m668.43,272.82c.25.08.51.13.77.16-.11.38-.22.77-.33,1.15l-.44-1.31Z"/><path class="cls-16" d="m674.33,312.9c.26.09.52.18.78.25-.24.29-.48.59-.72.88-.02-.38-.04-.75-.06-1.13Z"/><path class="cls-6" d="m670.3,282.89c.25.13.51.25.77.36-.03.35-.2.61-.52.77-.08-.38-.16-.75-.25-1.13Z"/><path class="cls-16" d="m411.26,7.91c-.41-.08-.83-.16-1.24-.25.41.08.83.16,1.24.25Z"/><path class="cls-17" d="m403.4,6.24c-.39-.08-.79-.17-1.18-.25.39.08.79.17,1.18.25Z"/><path class="cls-7" d="m273.3,6.09c-.44.16-.88.32-1.32.49.44-.16.88-.32,1.32-.49Z"/><path class="cls-17" d="m390.26,3.92c-.37-.04-.75-.08-1.12-.12.37.04.75.08,1.12.12Z"/><path class="cls-7" d="m374.29,1.9l-1.17-.09,1.17.09Z"/><path class="cls-7" d="m270.99,679.62c.42.1.84.21,1.27.31-.42-.1-.84-.21-1.27-.31Z"/><path class="cls-17" d="m295.13,683.78c.38.04.76.08,1.14.12-.38-.04-.76-.08-1.14-.12Z"/><path class="cls-17" d="m298.16,684.06c.4.03.79.06,1.19.1-.4-.03-.79-.06-1.19-.1Z"/><path class="cls-16" d="m377.3,684.06c-.09.23-.13.47-.15.71-.34-.2-.67-.41-1.01-.61.39-.04.77-.07,1.16-.11Z"/><path class="cls-8" d="m343.95,401.86c-.28.27-.55.55-.83.82-1.94,1.18-1.18,2.32.04,3.46.13.55.27,1.1.4,1.64-.32.56-.64,1.12-.95,1.68.57-.23,1.14-.45,1.71-.68,1.01,1.28,2.02,2.56,3.04,3.84.38.42.76.83,1.14,1.25,2.3,2.68,4.6,5.36,6.9,8.04-2.53.16-4.83.35-5.43-3.23-.31-1.82-2.9-2.44-4.46-1.26-1.5,1.13-3.37,2.2-3.28,4.56-3.35-1.67-6.69-3.33-10.04-5-.65-.35-1.3-.7-1.95-1.05l-1.01-1.09c-.17-1.3-.21-2.62-.52-3.88-1.41-5.71.38-8.5,6.07-8.96,2.57-.21,4.34-1.53,5.52-3.52.55-.92.59-2.53.16-3.51-.24-.55-1.94-.54-2.99-.6-.57-.03-1.17.32-1.83.53-.51-.71-1.18-1.21-1.22-1.76-.45-6.24-.84-12.49-1.13-18.74-.04-.93.35-1.92.72-2.81,1.08-2.57,2.06-5.04,2.47-7.93.37-2.58,1.71-5.56,4.78-6.78.45-.18.88-.45,1.26-.75,2.14-1.68,2.1-2.64-.17-4.96l-.14-.33c1.04-.61,2.07-1.23,3.11-1.84l-.03.03c.79-.64,1.59-1.28,2.38-1.92.52-.4,1.04-.81,1.56-1.21l1.08-.91-.03.03c.38-.33.75-.66,1.13-1,1.97-1.71,4.05-3.3,5.83-5.19.52-.55.14-1.93.18-2.93.1-.09.31-.25.3-.26-.14-.23-.31-.43-.48-.65v-5.73c3.67-.76,4.51,2.53,6.67,3.38.47-1.95.92-3.88,1.67-7.01,2.04,2.28,3.55,3.52,4.46,5.1,1.4,2.44,3.32,4.06,5.88,5.02,3.85,1.44,7.73,2.78,11.56,4.28,2.02.79,4.8.78,4.96,3.95-.43.97-.85,1.94-1.28,2.91l.03-.03-1.69,1.19c-2.58.92-5.51-.95-8.68,1.02,2.23.71,3.79,1.21,5.36,1.71l.12.35c-4.55.14-8.29,2.41-12.08,4.55-.28.2-.56.39-.84.59-.38.56-.76,1.12-1.13,1.68h0c-3.68,2.75-5.62,6.64-7.17,10.81l.06.04c-.28.39-.56.79-.84,1.18,0,0-.02.04-.02.04l-.98,1.96c-.31.66-.61,1.33-.92,1.99-1.05,1.67-2.06,3.38-3.16,5.02-2.56,3.82-5.15,7.62-7.73,11.42-.59-1.58-1.63-1.58-3.23-.92.08,1.61.15,3.15.23,4.69l.02.03c-3.08-.51-2.09,1.67-2.1,3.18.05.25-.03.44-.24.58-.28.4-.56.8-.84,1.2-.11.53-.21,1.05-.32,1.58h.08c-.37.37-.74.74-1.12,1.11Z"/><path class="cls-7" d="m309.21,549.88c3.34-3.56,7.37-6.01,12.01-7.45,2.66-.82,5.34-1.57,8.01-2.35.51.62,1.03,1.23,1.54,1.85.49-.64.98-1.28,1.47-1.92,11.86-.98,21.93,3.15,29.95,11.6,7.28,7.66,11.33,16.93,11.15,27.82-.1,5.67-.62,11.08-2.89,16.44-4.67,11.06-12.37,18.78-23.79,22.29-16.66,5.12-31.74.42-42.64-13.19-5.14-6.42-7.68-14.16-7.8-22.52-.04-2.5.05-5,.08-7.5.28-.4.55-.8.83-1.2.37-9.2,3.85-16.89,11.04-22.78.34-.36.68-.72,1.03-1.09Zm46.08,56.11l-.02.02c.34-.34.68-.68,1.02-1.02l-.02.02c.34-.34.68-.67,1.02-1.01l-.02.02c.34-.34.67-.68,1.01-1.02l-.02.02c.34-.34.68-.68,1.01-1.02l-.02.02c.33-.35.66-.69.99-1.04h0c.68-.99,1.36-1.99,2.04-2.99.32-.35.72-.65.96-1.05,3.9-6.5,4.37-13.65,3.96-20.97-.8-9.66-5.21-17.28-12.95-23.03h0c-1-.67-1.99-1.35-2.99-2.02v.02c-.35-.31-.7-.63-1.05-.94h-.02c-.66-.34-1.32-.67-1.98-1-2.27-.71-4.53-1.41-6.8-2.12-.39-.27-.79-.54-1.18-.81-1.83-.04-3.66-.02-5.49-.13-8.26-.5-15.13,2.73-21.23,7.95-1.86,1.59-3.5,3.45-5.25,5.18-.33-.32-.66-.65-.99-.97-1.68,1.85-4.56,3.57-4.78,5.59-.39,3.48-1.84,6.28-3.29,9.2-.92,1.84-1.42,3.65-.5,5.89,1.09.07,2.21.14,3.33.2.01,1.33.03,2.66.04,3.98-1.41-.03-1.87.71-1.87,2.06,0,1.43.67,1.97,2,1.94,2.34,7.37,5.33,14.34,11.93,19.04l3.02,2.03s0-.02,0-.02c.35.33.7.65,1.05.98,1,.62,2,1.25,3,1.87,2.14,1.29,4.32,2.42,6.94,2.13,3.43,1.32,7.62,1.34,11.21.04,4.81.23,8.86-1.86,12.81-4.22.68-.6,1.36-1.21,2.03-1.81.35-.33.7-.67,1.06-1Z"/><path class="cls-3" d="m188.02,340.36c-1.89-.05-3.78-.09-5.68-.14-.39-.05-.79-.09-1.18-.14-.74-.5-1.48-1-2.44-1.66,2.03-1.78,3.7-3.35,5.48-4.79,2.87-2.31,3.76-5.28,3.29-8.83-.45-3.42-.82-6.86-1.24-10.42-1.79-.69-3.43-1.31-5.01-1.92.05-.52-.03-.99.13-1.12,7.88-5.92,10.89-14.68,13.71-23.54.7-2.2,1.21-4.45,1.8-6.68.1-.41.2-.82.3-1.22.36-1.64.73-3.29,1.09-4.93.11-.4.21-.81.32-1.21.15-.57.3-1.14.44-1.7l.16-1.14c1.53-6.26,1.46-12.89,4.94-18.9l2.19,9.86c.1.42.2.83.31,1.25,1.55,5.89,2.83,11.87,4.72,17.65,2.13,6.5,5.83,12.18,11.22,17-4.08,3.82-8.24,1.98-12.27,1.29-.27.33-.54.66-.81.99,0,.31-.05.61-.15.9-1.23-1.07-2.57-2.04-3.68-3.22-2.1-2.26-2.95-2.42-5.17-.54-1.51,1.27-3.07,2.5-4.44,3.91-.77.79-1.7,1.92-1.68,2.88.1,4.8-2.71,7.97-5.51,11.33-.73.88-.7,2.93-.25,4.15,1.35,3.64,3.09,7.14,4.69,10.69,1.28,2.85,1.3,3.71-1.38,5.3-1.98,1.18-2.99,2.43-2.78,4.68l-1.13.2Z"/><path class="cls-4" d="m459.41,305.99c3.87-6.19,6.82-12.77,8.55-19.87.08-.39.16-.79.24-1.18.28-1.3.55-2.59.83-3.89.04-.37.08-.75.12-1.12.91-4.6,1.21-9.37,3.77-14.69.62,2.58.99,4.14,1.37,5.7.13.75.26,1.5.38,2.25,1.47,8.39,2.93,16.79,6.45,24.65.33.74.8,1.42,1.2,2.13.6,1.05,1.19,2.1,1.79,3.14l-.05-.05c.36.67.73,1.35,1.09,2.02l-.04-.03c.6.86,1.21,1.72,1.81,2.58.11.45.23.9.34,1.35l.82,1.45c.02.45.05.9.07,1.35-1.51.32-3.04.58-4.54.98-.98.26-1.9.73-2.84,1.1-.21.02-.43.05-.64.09-1.59-.83-3.18-1.67-5.04-2.64,1.45-2.97.1-6.16,1.86-9.26,1.3-2.29-.08-5.1-2.37-7.01-4.73,2.57-9.21,5.32-12.32,10.19,1.35.85,2.68,1.69,4.02,2.54-.48,1.96-.91,3.7-1.33,5.44-.51.09-1.02.17-1.53.26l-1.27.4c-2.68.12-5.47.9-7.8-1.24,1.58-1.99,3.15-3.99,4.73-5.98.29.68.56,1.37.91,2.02.03.06.53-.13.81-.2-.32-.76-.64-1.52-.98-2.26-.05-.11-.27-.14-.42-.2Z"/><path class="cls-16" d="m417.17,82.92c-1.31,6.06-2.63,12.12-3.92,18.18-.95,4.45-1.85,8.91-3,14.42-2.54-2.92-4.32-5.16-6.29-7.21-3.79-3.94-7.73-7.73-11.5-11.69-.95-1-1.5-2.39-2.23-3.6.81-.73,1.52-1.67,2.46-2.14,6.66-3.32,13.35-6.58,20.09-9.75,1.35-.64,2.74-2.17,4.49-.71-.03.83-.07,1.66-.1,2.49Z"/><path class="cls-11" d="m76.24,390.85c4.35-2.61,8.8-3.63,13.62-.86,1.9-1.08,3.87-2.19,5.74-3.26,2.31,2.08,4.33,3.91,6.08,5.48v6.66c-1.1-.59-2.14-1.14-3.31-1.76-6.16,2.21-10.56,6-10.95,13.51,1.32.13,2.59.25,3.86.38-2.02,1.32-4.03,2.65-6.05,3.97-1,.32-2,.64-2.99.97-.08-1.14.3-2.81-.31-3.34-3-2.58-3.64-6.4-5.52-9.61.73-2.54,1.18-5.39,5.28-5.59-2.92-3.62-6.44-3.27-9.73-3.57,1.16-.36,2.35-.64,3.47-1.11.73-.31,2-.61.81-1.86Z"/><path class="cls-3" d="m212.48,316.04c2.02,4.84,3.74,9.84,6.16,14.47,1.64,3.13,4.27,5.74,6.62,8.79-2.87,2.81-6.02,1.59-9.66.77.59,1.49,1.06,2.71,1.54,3.93-.81-.08-1.61-.15-2.75-.26.66-5.95-4.46-8.51-7.54-12.11,2.83-2.41,5.18-4.41,7.59-6.47-2.37-2.73-5.06,1.86-7.15-1.47,2.3-.85,5.18-1.33,4.8-5.02-.82-.41-1.76-.89-2.88-1.45,2.19-4.05.37-7.76-.66-11.5-.34-1.22-.61-2.27.87-2.86.25.02.49.08.71.17.69,3.97,1.39,7.95,2.08,11.92.08.36.16.72.24,1.08Z"/><path class="cls-13" d="m224.31,570.36c8.52-4.9,16.97-5.38,25.6-.64-1.1,6-17.4,6.66-25.6.64Z"/><path class="cls-13" d="m486.39,526.98c7.35-5.13,16.83-5.17,24.66-.09-5.15,5.57-19.22,5.63-24.66.09Z"/><path class="cls-13" d="m155.47,523.86c-4,5.42-15.93,5.65-24.82.8,5.61-5.21,15.87-5.61,24.82-.8Z"/><path class="cls-13" d="m229.94,473.96c8.44-5.55,16.68-4.98,23.16-.34-6.2,4.73-12.97,4.89-23.16.34Z"/><path class="cls-13" d="m270.93,601.66c-7.48,4.78-14.95,4.36-22.58.54,4.68-5.91,13.03-6.1,22.58-.54Z"/><path class="cls-4" d="m448.23,348.96c.36-.57.73-1.15,1.09-1.72.66-.41,1.33-.82,1.99-1.23l-.04.03c.38-.32.75-.64,1.13-.96l-.05.06c.36-.33.73-.67,1.1-1l-.04.06c.56-.43,1.13-.86,1.69-1.28.38-.34.75-.67,1.13-1.01.33-.32.66-.64.99-.96,3.86-3.16,6.65-7.06,8.08-11.88.26-.09.53-.18.8-.25.05,1.66.05,3.32.15,4.98.16,2.71-.89,4.97-2.95,6.52-4.12,3.08-6.38,7.17-7.38,12.1-.05.23-.5.38-.76.56-1.62-.38-3.24-.77-4.87-1.15l.05.04c-.7-.97-1.41-1.95-2.11-2.92Z"/><path class="cls-7" d="m85.23,414.97c2.02-1.32,4.03-2.65,6.05-3.97h-.02c.65-.34,1.3-.7,1.96-1.05h.02c.36-.33.71-.65,1.07-.97,1.94-1.18,4-2.2,5.79-3.59,1.71-1.32,3.41-1.8,5.54-1.17,1.35,1.8.61,3.4-.85,4.64-2.44,2.09-5.04,4-7.57,5.99-3.99.44-7.98.87-11.97,1.31,0-.4,0-.79,0-1.19Z"/><path class="cls-3" d="m174.16,376.87c-4.36.27-8.8,1.28-13.67-1.5,3.67-2.78,7.04-5.02,10.04-7.68,3.07-2.72,5.78-5.85,8.65-8.8,1.07,3.95-1.71,7.07-2.32,10.66-.07.39-.63,1-.98,1.01-2.96.07-3.68,2.81-6.05,4.91,1.9.23,3.22.4,4.55.56-.08.28-.16.56-.23.84Zm-8.26-4.55q-.34,3.46,2.51,2.73c-.73-.79-1.32-1.43-2.51-2.73Z"/><path class="cls-11" d="m85.24,416.16c3.99-.44,7.98-.87,11.97-1.31-1.75,2.82-3.75,5.19-7.48,5.45-.85.06-1.62,1.31-2.43,2.02.87.82,1.63,2.11,2.64,2.36,1.86.46,3.88.31,5.83.42-5.43,1.98-10.99,2.14-16.63,1.2,0-1.58.62-2.49,2.38-2.35,1.54.12,3.01-.04,3.68-2.54-1.86-.68-3.75-1.36-6.13-2.23.82-.82,1.53-1.54,2.24-2.26,1.31-.25,2.61-.51,3.92-.76Z"/><path class="cls-6" d="m99.27,454.28c7.17-4.68,13.91-4.88,21.36-.4-7.22,4.53-13.97,4.77-21.36.4Z"/><path class="cls-4" d="m494.12,346.25c-.33.47-.66.94-.99,1.42-.43.39-.85.77-1.28,1.16-.26-.05-.47.03-.63.25-.37.27-.74.54-1.11.8l.06-.05c-.79.33-1.58.65-2.36.98-.54.11-1.07.22-1.61.32-.99-.04-1.98-.07-2.97-.11.24-1.23.58-2.45.69-3.69.12-1.37.03-2.75.03-4.67-.53-.3-1.45-.8-2.8-1.55v-8.09l.11-.09c.29.11.58.22.87.32.62.93,1.24,1.85,1.86,2.78l1.31,1.69c1.01,1.08,2.03,2.15,3.04,3.23,1.93,1.76,3.85,3.53,5.78,5.29Z"/><path class="cls-11" d="m67.28,358.54c.65.07,1.31.14,1.96.21.67.03,1.35.07,2.02.1l-.08.21c.36.02.72.05,1.09.07.98.15,1.97.3,2.95.44.67,2.71,3.34.48,4.75,2.08.15.68.37,1.62.59,2.57,0,0-.04-.01-.04-.01-.43.58-.86,1.16-1.29,1.74,0,0,0,0,0,0-.33.35-.65.7-.98,1.05l.03-.03c-.34.35-.67.71-1.01,1.06l.04-.04c-.34.36-.67.72-1.01,1.08l.05-.05c-.34.36-.68.72-1.02,1.08l.05-.05c-.35.35-.71.7-1.06,1.05l.05-.03c-1.04-.03-2.09-.07-3.13-.1,1.07-4.32-1.32-7.29-4.11-9.96-.94-.9-2.44-1.23-4.12-2.03.78-.44,1.27-.72,1.75-.99.84.19,1.69.38,2.53.57Z"/><path class="cls-4" d="m453.01,395.76c2.15-3.61,4.43-7.16,6.38-10.88.79-1.52.84-3.42,1.39-5.89h-9.55c-.41-.69-.83-1.38-1.24-2.07.12-.31.24-.62.36-.93l.88-1.05c.39-.64.77-1.28,1.16-1.91l-.04.08c.29-.04.57-.1.84-.2l.12.12c-.03,1.89-.63,4.05,2.22,4.82,1.33-1.58,0-5.27,4.05-4.74,2.43,3.42,2.55,7.79,3.46,11.81.34,1.5-.78,3.85-1.99,5.05-2.32,2.31-4.31,5.35-8.04,5.77Z"/><path class="cls-6" d="m550.7,453.07c1.29.9,2.68,1.54,3.63,2.58,6.02,6.58,13.12,10.81,22.38,10.88-5.07.16-10.06,1.2-15.03-.54-3.87-1.35-7.03-3.61-9.54-6.74-1.32-1.65-2.55-3.49-1.44-6.17Z"/><path class="cls-6" d="m185.48,484.6c7.16-3.76,13.42-3.66,17.59.29-5.13,4.54-12.66,3.73-17.59-.29Z"/><path class="cls-1" d="m410.08,350.99c-.04-.35-.08-.71-.12-1.06.05-.32.11-.64.16-.95.14-.63.29-1.26.43-1.89l2.92-15.05c.26-.36.52-.71.78-1.07.39-.08.77-.16,1.16-.24.64,2.08,1.29,4.16,1.93,6.23.33,2.65.66,5.29.99,7.94-.05.69-.1,1.39-.14,2.08-.55-1.25-1.11-2.51-1.8-4.08-2.02,1.44-3.63,2.98-4.38,5.42-.31.99-1.26,1.78-1.92,2.66Z"/><path class="cls-4" d="m436.8,405.82c5.69-1.99,10.51-5.46,15.23-9.09.03.49.28,1.23.06,1.42-3.88,3.43-4.32,8.92-7.67,12.7-2.2.32-3.69-1.13-3.98-2.81-.44-2.55-2.16-1.96-3.63-2.22Z"/><path class="cls-4" d="m455.2,353.87c.99,1.31,1.98,2.62,3.24,4.28-1.01,2.47-2.1,5.14-3.19,7.8l-.33.31c-2.34-.72-4.68-1.43-7.02-2.15.99-.07,2.01-.04,2.98-.24,1.65-.35,1.53-1.39.69-2.88h-4.3l-.31-.36c1.12-.87,2.24-1.74,3.36-2.61l-.04.03c.37-.33.75-.65,1.12-.98l-.02.05c1.27-1.09,2.55-2.17,3.82-3.26Z"/><path class="cls-6" d="m260.25,555.21c5.77-4.25,11.81-4.27,15.94-.07-5.34,2.9-10.51,3.61-15.94.07Z"/><path class="cls-2" d="m84.52,457.94c3.15,1.29,5.9,2.72,8.82,3.51,2.75.74,5.68.8,9.28,1.26-8.47,5.52-14.97,3.69-18.11-4.77Z"/><path class="cls-6" d="m448.81,460.33c-5.65,3.42-11.32,3.68-17.08.28,4.47-3.72,11.26-3.83,17.08-.28Z"/><path class="cls-13" d="m546.47,508.04c4.72-3.38,9.54-4.22,14.79-.68-4.91,4.47-9.86,2.23-14.79.68Z"/><path class="cls-6" d="m195.63,558.34c5.18-3.21,11-3.22,15.72-.35-5.03,4.03-9.95,2.56-15.72.35Z"/><path class="cls-6" d="m400.46,605.57c5.02-3.6,9.73-3.2,15.16-.79-5.18,4.13-9.96,3.2-15.16.79Z"/><path class="cls-3" d="m182.12,354.89c2.15-4.23,4.3-8.47,6.46-12.7.26-.41.53-.81.79-1.22.55.26,1.6.61,1.58.76-1.01,5.33-2.59,10.37-7.86,13.15-.25.13-.64.01-.97.01Z"/><path class="cls-4" d="m468.07,320.17c-.57.05-1.13.1-1.7.15-.38-.12-.76-.24-1.14-.35-.07-2.28-.14-4.55-.22-6.83,2.17-.91,4.35-1.83,6.88-2.89-.07.79.14,2.13-.25,2.33-3.16,1.67-3.39,4.6-3.58,7.59Z"/><path class="cls-10" d="m71.07,388.16c-2.61-1.02-5.66-1.53-5.89-5.22l.04-.02c.48-.27.96-.53,1.44-.8.53-.12,1.06-.25,1.6-.37.44-.22.88-.44,1.32-.66.56-.11,1.12-.23,1.68-.34.57-.02,1.14-.04,1.72-.06l.29.29c-2.17,1.95-2.1,4.59-2.19,7.17Z"/><path class="cls-11" d="m76.49,345.05c-2.07,2.34-4.14,4.68-6.21,7.01-.44.55-.87,1.1-1.31,1.65,0,0,.27.2.27.2l-.25-.23-1.64,1.32-.06.06c-.65.38-1.29.76-1.94,1.14.08-.96-.22-2.27.29-2.84,2.53-2.8,5.21-5.48,8.01-8.01.57-.52,1.87-.22,2.84-.3Z"/><path class="cls-5" d="m348.2,442.28l25.07-.04c-.58.23-1.15.66-1.73.66-7.2.05-14.4.06-21.6.02-.58,0-1.16-.42-1.74-.65Z"/><path class="cls-5" d="m234.36,381.84c1.15,1.22,2.31,2.44,3.94,4.16-4.89,1.52-8.72,1.52-12.41-.76h8.12c.08-.75.21-2.07.35-3.4Z"/><path class="cls-3" d="m218.18,345.13q4.75,3.82,2.79,9.78c-.93-3.26-1.86-6.52-2.79-9.78Z"/><path class="cls-4" d="m483.21,319.91c-1.3.11-2.6.23-3.9.34.33-1.81.66-3.63.99-5.44.31.07.62.12.94.15.75.99,1.5,1.98,2.26,2.96-.1.66-.19,1.33-.29,1.99Z"/><path class="cls-16" d="m558.08,288.1c-.43.36-.86.73-1.29,1.09-1.68-2-3.15-4.1-3.73-7.52,2.84,1.88,3.69,4.35,5.02,6.43Z"/><path class="cls-11" d="m74.11,427.22c.7,2.25,1.39,4.5,2.09,6.74-3.09-1.77-3.97-3.85-2.96-7.02.29.1.58.19.87.27Z"/><path class="cls-11" d="m68.84,375.81c-.25-.05-.45.02-.61.21-.52.13-1.03.25-1.55.38-.15-.15-.3-.3-.45-.45.22-2.45,1.55-3.79,4.01-4,.04.76.08,1.52.12,2.28-.03.24-.08.47-.15.7h.01c-.46.28-.92.57-1.38.87Z"/><path class="cls-11" d="m61.25,379.96c0,1,0,2-.01,3-.95-.65-1.89-1.3-2.84-1.95.91-.72,1.82-1.45,2.73-2.17,0,0,.08.09.08.09.02.34.03.69.05,1.03Z"/><path class="cls-1" d="m70.36,374.24c-.04-.76-.08-1.52-.12-2.28.33-.33.67-.67,1-1,1.04.03,2.09.07,3.13.1-.75.85-1.5,1.7-2.25,2.56-.59.21-1.17.41-1.76.62Z"/><path class="cls-4" d="m466.1,328.87c.66-1.82,1.32-3.65,1.98-5.47.05,1.25.11,2.5.14,3.75.04,1.49-.85,1.85-2.13,1.72Z"/><path class="cls-1" d="m586.11,411.11c-1.08-1.04-2.17-2.08-3.85-3.7,1.84-.35,2.82-.53,3.8-.72.02,1.47.03,2.94.05,4.42Z"/><path class="cls-4" d="m477.18,321.97l1.05,3.99c-2.43-.91-2.58-1.46-1.05-3.99Z"/><path class="cls-4" d="m465.57,304.41c.7-.69,1.4-1.37,2.1-2.06q.84,2.9-2.1,2.06Z"/><path class="cls-17" d="m319.38,459.65c-2.06.08-4.13.16-6.19.24,2.02-1.33,4.09-1.23,6.19-.24Z"/><path class="cls-16" d="m185.33,403.04l-1.25-1.31,2.52-1.62c.2.24.4.49.6.73-.63.73-1.25,1.47-1.88,2.2Z"/><path class="cls-17" d="m441.45,442.39c-.04.48-.09.95-.13,1.43-1.2-.31-2.41-.61-3.61-.92.04-.3.08-.59.12-.89,1.21.13,2.42.26,3.63.38Z"/><path class="cls-4" d="m455.24,368.96c-.32,1.51,1,3.8-1.93,4.07l-.12-.12c.37-1.3.75-2.6,1.12-3.89.26-.08.52-.15.78-.2l.16.14Z"/><path class="cls-2" d="m588.06,379.99c-1.01-.14-2.02-.28-3.03-.42.04-.49.08-.98.12-1.47,1.39.38,2.79.76,4.18,1.14-.42.25-.85.51-1.27.76Z"/><path class="cls-4" d="m478.35,326.63c.58.88,1.16,1.75,1.74,2.63-.06.28.01.52.23.71-.06.33-.1.66-.13.99-3.26-.32-1.51-2.76-1.83-4.33Z"/><path class="cls-2" d="m332.24,540.01c-.49.64-.98,1.28-1.47,1.92-.51-.62-1.03-1.23-1.54-1.85,1-.02,2-.05,3.01-.07Z"/><path class="cls-5" d="m85.24,416.16c-1.31.25-2.61.51-3.92.76.31-.33.61-.66.92-.99,1-.32,2-.64,2.99-.97,0,.4,0,.79,0,1.19Z"/><path class="cls-3" d="m180.05,357.82c.7-.99,1.41-1.97,2.11-2.96.04,1.52.53,3.36-2.11,2.96Z"/><path class="cls-5" d="m136.61,365.35c-1.8.13-3.6.25-5.4.38,1.8-.13,3.6-.25,5.4-.38Z"/><path class="cls-17" d="m221.07,355.86c-.12,1.75-.25,3.51-.37,5.26.12-1.75.25-3.51.37-5.26Z"/><path class="cls-5" d="m391.27,382.06l3,.28c-.67.86-1.34,1.72-2.01,2.58-.37-.32-.74-.64-1.11-.95.04-.63.08-1.27.11-1.9Z"/><path class="cls-11" d="m66.29,394.22c1.65-.1,3.3-.19,4.95-.29-1.56,1.71-3.24,1.33-4.95.29Z"/><path class="cls-5" d="m499.58,389.28c-1.79.11-3.59.22-5.38.33,1.79-.11,3.59-.22,5.38-.33Z"/><path class="cls-7" d="m355.14,461.1c-1.71-.2-3.42-.4-5.12-.6,1.78-.38,3.59-1.1,5.12.6Z"/><path class="cls-16" d="m281.02,485.3c1.4-.11,2.81-.22,4.21-.33-1.31,1.35-2.7,1.55-4.21.33Z"/><path class="cls-11" d="m61.67,384.78c.16.73.31,1.45.47,2.18-.57-.35-1.14-.7-1.7-1.04.41-.38.82-.75,1.24-1.13Z"/><path class="cls-1" d="m585.99,406.74c-.02-.3.07-.56.27-.78.98-.11,1.96-.22,2.94-.33.33.08.66.12.99.13-.97,2.15-2.73.93-4.19.97Z"/><path class="cls-16" d="m137.16,431.03c-.26.59-.52,1.18-.79,1.76-.32-.76-.64-1.53-.96-2.29l1.74.53Z"/><path class="cls-5" d="m431.42,415.11l-4.21.72,4.21-.72Z"/><path class="cls-2" d="m256.31,382.73l-3.34-.2,3.34.2Z"/><path class="cls-16" d="m361.38,685.73c-1.07.05-2.14.1-3.21.15,1.07-.05,2.14-.1,3.21-.15Z"/><path class="cls-2" d="m381.32,683.63c-1.03.1-2.07.2-3.1.31.93-1.2,1.97-1.22,3.1-.31Z"/><path class="cls-4" d="m468,323.01l.02-2.94c2.14,1,1.73,1.97-.02,2.94Z"/><path class="cls-6" d="m133.5,335.35c-1.09.2-2.18.41-3.27.61.84-1.53,2.09-.87,3.27-.61Z"/><path class="cls-3" d="m178.79,375.12c-.52.28-1.04.56-1.56.84-.67-.02-1.34-.04-2-.07,1.19-.26,2.37-.52,3.56-.78Z"/><path class="cls-17" d="m581.24,345.95c1.02.3,2.04.6,3.06.9-1.02-.3-2.04-.6-3.06-.9Z"/><path class="cls-2" d="m260.53,381.43c-.84.31-1.68.61-2.53.92.84-.31,1.68-.61,2.53-.92Z"/><path class="cls-17" d="m175.23,375.89c.67.02,1.34.04,2,.07-1.02.3-2.05.61-3.07.91.08-.28.15-.56.23-.84.29.02.57-.03.84-.13Z"/><path class="cls-7" d="m317.14,510.19c1.05-.04,2.09-.08,3.14-.12-1.01,1.11-2.05,1.14-3.14.12Z"/><path class="cls-17" d="m320.19,462.02l3.16.13c-1.1,1-2.15.96-3.16-.13Z"/><path class="cls-2" d="m360.18,462.05c-1.07-.19-2.13-.38-3.2-.57,1.19-.48,2.35-.82,3.2.57Z"/><path class="cls-2" d="m574.3,356.77c-1.03.05-2.06.09-3.09.14.98-1.17,2.01-1.21,3.09-.14Z"/><path class="cls-17" d="m382.33,438.92c-.05-.27-.12-.54-.21-.8,1.05.27,2.1.53,3.15.8-.68.05-1.35.1-2.03.16-.29-.12-.59-.17-.9-.15Z"/><path class="cls-17" d="m342.38,434.03c.92-.06,1.84-.11,2.76-.17-1,.32-2,.64-3.01.96.1-.26.19-.52.25-.79Z"/><path class="cls-11" d="m77.27,426.14c-1.02-.08-2.04-.16-3.05-.24,1.14-1.46,2.17-1.53,3.05.24Z"/><path class="cls-11" d="m99.18,424.71c-1,.15-2,.31-2.99.46.76-1.67,1.81-1.54,2.99-.46Z"/><path class="cls-17" d="m325.19,421.86c-.27.05-.54.12-.81.21.27-1.05.54-2.09.81-3.14.09.35.17.7.26,1.04-.09.63-.17,1.26-.26,1.89Z"/><path class="cls-2" d="m178.3,417.83c-1.04-.23-2.09-.46-3.13-.69,1.04.23,2.09.46,3.13.69Z"/><path class="cls-4" d="m455.24,365.96c1.41,1,1.41,2,0,3.01l-.16-.14c-.1-.35-.2-.7-.3-1.05.04-.5.09-1,.13-1.51l.33-.31Z"/><path class="cls-10" d="m73.27,379.97l.99-.19c.56-.04,1.11-.09,1.67-.13l.33.33c-1,.34-1.99.67-2.99,1.01l-.29-.29c.1-.24.19-.48.29-.72Z"/><path class="cls-16" d="m242.88,374.1c-.21-.72-.42-1.43-.63-2.15.21.72.42,1.43.63,2.15Z"/><path class="cls-2" d="m583.25,380.94c.74.2,1.48.4,2.22.6-.74-.2-1.48-.4-2.22-.6Z"/><path class="cls-17" d="m394.41,681.52c-.73.15-1.45.29-2.18.44.73-.15,1.45-.29,2.18-.44Z"/><path class="cls-16" d="m189.37,340.96c-.26.41-.53.81-.79,1.22-.19-.61-.37-1.21-.56-1.82l1.13-.2c.01.28.09.55.23.8Z"/><path class="cls-10" d="m73.09,389.18c-.67-.35-1.34-.71-2.02-1.06.67.35,1.34.71,2.02,1.06Z"/><path class="cls-10" d="m75.13,390.28c-.69-.38-1.38-.76-2.06-1.14,1-.18,1.96-.3,2.06,1.14Z"/><path class="cls-17" d="m418.18,346.98c.05-.69.1-1.39.14-2.08.35.7.71,1.4,1.06,2.11h-.28s-.28-.02-.28-.02l-.32.06-.32-.06Z"/><path class="cls-2" d="m593.12,366.98c.2-.36.4-.72.6-1.09l.43,2.16c-.28-.09-.57-.15-.87-.17l.03.03c.02-.33-.04-.64-.2-.93Z"/><path class="cls-5" d="m148.21,348.04c.69.06,1.37.13,2.06.19-.78.97-1.46.8-2.06-.19Z"/><path class="cls-16" d="m596.11,379.55c.72-.18,1.44-.37,2.16-.55-.72.18-1.44.37-2.16.55Z"/><path class="cls-2" d="m557.26,297.9c-.77-.14-1.53-.27-2.3-.41.77.14,1.53.27,2.3.41Z"/><path class="cls-17" d="m295.45,403.26c-.37.59-.74,1.17-1.11,1.76.37-.59.74-1.17,1.11-1.76Z"/><path class="cls-7" d="m511.45,365.29c-.74.22-1.48.45-2.21.67.74-.22,1.48-.45,2.21-.67Z"/><path class="cls-7" d="m256.32,520.77c-.72,0-1.44.02-2.16.02.72,0,1.44-.02,2.16-.02Z"/><path class="cls-5" d="m229.28,375.91c.42.56.83,1.12,1.25,1.68-.42-.56-.83-1.12-1.25-1.68Z"/><path class="cls-1" d="m409.15,351.95c.3-.19.59-.37.89-.56-.26.87-.51,1.74-.77,2.61l-.23-.22c.04-.61.07-1.22.11-1.83Z"/><path class="cls-11" d="m93.21,409.95c-.65.35-1.3.71-1.96,1.06.65-.35,1.3-.71,1.96-1.06Z"/><path class="cls-16" d="m168.1,410.51c.74-.15,1.48-.3,2.22-.45-.74.15-1.48.3-2.22.45Z"/><path class="cls-6" d="m492.15,411.88c-.03-.22-.07-.43-.14-.64.59-.04,1.18-.08,1.77-.12.02.19.04.37.05.56-.56.07-1.12.13-1.68.2Z"/><path class="cls-1" d="m408.14,355.92c.05-.62.09-1.23.14-1.85.25-.1.51-.2.76-.3,0,0,.23.22.23.22-.38.64-.75,1.28-1.13,1.93Z"/><path class="cls-2" d="m342.27,459.89c-.7-.04-1.41-.08-2.11-.12.76-.95,1.46-.83,2.11.12Z"/><path class="cls-17" d="m536.02,246.08c.06-.72.11-1.43.17-2.15-.06.72-.11,1.43-.17,2.15Z"/><path class="cls-1" d="m407.13,357.91c.1-.62.21-1.24.31-1.86.25-.03.49-.09.73-.18-.35.68-.7,1.36-1.05,2.04Z"/><path class="cls-11" d="m64.75,377.12c-.82.33-1.64.66-2.45.99.82-.33,1.64-.66,2.45-.99Z"/><path class="cls-16" d="m598.27,416.99c-.07-.56-.15-1.12-.22-1.68.38.11.75.23,1.13.34l-.91,1.34Z"/><path class="cls-7" d="m282,448.49c.76-.15,1.52-.3,2.27-.45-.76.15-1.52.3-2.27.45Z"/><path class="cls-1" d="m405.85,359.83l1.32-1.97c.06.99.11,1.97-1.32,1.97Z"/><path class="cls-17" d="m291.12,447.15c.72-.04,1.43-.09,2.15-.13-.72.04-1.43.09-2.15.13Z"/><path class="cls-10" d="m76.22,378.95l1.94-.14c-.64.39-1.27.78-1.91,1.16,0,0-.33-.33-.33-.33.1-.23.2-.46.3-.69Z"/><path class="cls-10" d="m80.15,377.9c.68-.36,1.36-.72,2.04-1.08-.68.36-1.36.72-2.04,1.08Z"/><path class="cls-1" d="m589.19,413.11c-.55-.09-1.09-.18-1.64-.27-.1-.29-.2-.58-.32-.87l.09-.11c.62.42,1.25.83,1.87,1.25Z"/><path class="cls-16" d="m322.65,432.74c.12.78.24,1.56.36,2.33-.12-.78-.24-1.56-.36-2.33Z"/><path class="cls-10" d="m78.12,378.86c.69-.33,1.39-.66,2.08-.99-.69.33-1.39.66-2.08.99Z"/><path class="cls-16" d="m191.2,426.92c-.04-.58-.08-1.16-.11-1.73,1.29.48,1.3.52.11,1.73Z"/><path class="cls-17" d="m667.91,269.79c.1.4.2.79.3,1.19-.1-.4-.2-.79-.3-1.19Z"/><path class="cls-6" d="m100.26,424.73c.17-.19.33-.39.51-.56.01-.01.2.16.31.24l-.52.48-.25.1-.05-.26Z"/><path class="cls-16" d="m189.33,425.69c-.37.08-.75.16-1.12.24.37-.08.75-.16,1.12-.24Z"/><path class="cls-5" d="m230.64,377.72c.28.29.56.58.84.87-.28-.29-.56-.58-.84-.87Z"/><path class="cls-8" d="m355.14,424.97l-.24.94.24-.94Z"/><path class="cls-16" d="m274.42,422.46c-.45.1-.9.19-1.35.29.45-.1.9-.19,1.35-.29Z"/><path class="cls-3" d="m179.16,358.92c.32-.38.63-.76.95-1.14-.32.38-.63.76-.95,1.14Z"/><path class="cls-11" d="m62.38,378.05c-.02.29-.09.57-.22.84,0,0,.04-.01.04-.01-.33.02-.66.03-.99.05l-.08-.09c.42-.26.83-.52,1.25-.78Z"/><path class="cls-17" d="m446.38,427.68c-.39.08-.78.16-1.17.24.39-.08.78-.16,1.17-.24Z"/><path class="cls-7" d="m257.21,429.98c-.18-.25-.38-.49-.52-.76-.02-.05.2-.22.31-.33l.21,1.1Z"/><path class="cls-5" d="m265.09,429.93c-.04.36-.09.72-.13,1.08.04-.36.09-.72.13-1.08Z"/><path class="cls-5" d="m545.1,298.93l-.16,1.08c.05-.36.11-.72.16-1.08Z"/><path class="cls-17" d="m497.28,432.89c-.4-.08-.81-.17-1.21-.25.4.08.81.17,1.21.25Z"/><path class="cls-7" d="m504.3,433.83c-.44-.13-.88-.27-1.32-.4.44.13.88.27,1.32.4Z"/><path class="cls-17" d="m424.43,377.27c-.06.31-.2.58-.42.8-.16-.19-.32-.37-.48-.56.3-.08.6-.16.9-.24Z"/><path class="cls-5" d="m265.04,434.92c.03.36.06.71.09,1.07-.03-.36-.06-.71-.09-1.07Z"/><path class="cls-16" d="m533.99,259.14c.07-.4.14-.8.21-1.2-.07.4-.14.8-.21,1.2Z"/><path class="cls-2" d="m178.2,418.91c.06-.35.12-.69.18-1.04,1.01.53.82.85-.18,1.04Z"/><path class="cls-5" d="m426.92,416.93c.13.33.27.66.4.99-.13-.33-.27-.66-.4-.99Z"/><path class="cls-17" d="m444.36,442.3c-.42,0-.84.02-1.26.03.42,0,.84-.02,1.26-.03Z"/><path class="cls-17" d="m535.27,250.99c.03-.37.06-.74.08-1.1-.03.37-.06.74-.08,1.1Z"/><path class="cls-7" d="m305.09,445.42c.42.06.84.12,1.26.18-.42-.06-.84-.12-1.26-.18Z"/><path class="cls-7" d="m309.16,445.12c.37-.03.75-.05,1.12-.08-.37.03-.75.05-1.12.08Z"/><path class="cls-5" d="m231.6,378.73c.28.32.56.64.84.96-.28-.32-.56-.64-.84-.96Z"/><path class="cls-16" d="m161.14,450.23c.38-.08.75-.15,1.13-.23-.38.08-.75.15-1.13.23Z"/><path class="cls-5" d="m233.44,380.79c.31.35.61.7.92,1.05-.31-.35-.61-.7-.92-1.05Z"/><path class="cls-17" d="m255.14,452.13c.38-.04.76-.07,1.14-.11-.38.04-.76.07-1.14.11Z"/><path class="cls-17" d="m246.2,453.92c.38-.04.75-.09,1.13-.13-.38.04-.75.09-1.13.13Z"/><path class="cls-17" d="m249.06,453.27c.4-.09.81-.18,1.21-.26-.4.09-.81.18-1.21.26Z"/><path class="cls-7" d="m177.43,456.45c-.43.12-.86.24-1.29.37.43-.12.86-.24,1.29-.37Z"/><path class="cls-16" d="m284.19,359.88c.38-.05.76-.09,1.14-.14-.38.05-.76.09-1.14.14Z"/><path class="cls-6" d="m300.37,460.42c-.39.16-.78.33-1.18.49.39-.16.78-.33,1.18-.49Z"/><path class="cls-17" d="m320.17,359.87c.41-.08.82-.16,1.23-.23-.41.08-.82.16-1.23.23Z"/><path class="cls-2" d="m256.13,376.3c.39-.07.77-.15,1.16-.22-.39.07-.77.15-1.16.22Z"/><path class="cls-16" d="m368.23,463.97c-.37-.1-.74-.21-1.11-.31.37.1.74.21,1.11.31Z"/><path class="cls-7" d="m361.21,467.99c.42.11.85.22,1.27.33-.42-.11-.85-.22-1.27-.33Z"/><path class="cls-7" d="m157.13,490.25c.38-.07.77-.14,1.15-.21-.38.07-.77.14-1.15.21Z"/><path class="cls-7" d="m403.28,412.88c-.36,0-.73-.01-1.09-.02.36,0,.73.01,1.09.02Z"/><path class="cls-1" d="m586.24,411.94c-.1-.28-.16-.58-.17-.88.42.27.83.53,1.25.79l-.09.11c-.33,0-.66,0-.99-.02Z"/><path class="cls-17" d="m337.32,504.84c-.42-.09-.84-.17-1.25-.26.42.09.84.17,1.25.26Z"/><path class="cls-17" d="m309.32,505.8l-1.13.11,1.13-.11Z"/><path class="cls-2" d="m252.19,376.06c.38.07.76.14,1.14.21-.38-.07-.76-.14-1.14-.21Z"/><path class="cls-11" d="m94.3,408.98c-.36.32-.71.64-1.07.96.36-.32.71-.64,1.07-.96Z"/><path class="cls-17" d="m304.08,512.24c.38-.09.77-.19,1.15-.28-.38.09-.77.19-1.15.28Z"/><path class="cls-16" d="m345.2,511.99c.38.1.77.21,1.15.31-.38-.1-.77-.21-1.15-.31Z"/><path class="cls-7" d="m246.46,520.53c-.43.11-.86.21-1.29.32.43-.11.86-.21,1.29-.32Z"/><path class="cls-16" d="m210.15,303.04c-.23-.1-.47-.15-.71-.17.14-.35.29-.69.43-1.04.09.4.19.81.28,1.21Z"/><path class="cls-17" d="m674.08,308.87c.03.38.06.76.09,1.14-.03-.38-.06-.76-.09-1.14Z"/><path class="cls-17" d="m309.26,405.92l-1.19-.25,1.19.25Z"/><path class="cls-16" d="m505.17,379.84c.37,0,.74.02,1.11.03-.37,0-.74-.02-1.11-.03Z"/><path class="cls-2" d="m309.21,549.88c-.34.36-.68.72-1.03,1.09.34-.36.68-.72,1.03-1.09Z"/><path class="cls-17" d="m299.25,403.95c-.39-.09-.79-.19-1.18-.28.39.09.79.19,1.18.28Z"/><path class="cls-11" d="m66.25,377.05c-.34-.03-.68-.06-1.02-.08.33-.33.66-.67.99-1,.15.15.3.3.45.45-.15.18-.25.39-.32.61l-.11.03Z"/><path class="cls-16" d="m533.02,265.06c.05-.38.1-.76.15-1.13-.05.38-.1.76-.15,1.13Z"/><path class="cls-17" d="m161.41,401.61c-.41.09-.82.19-1.23.28.41-.09.82-.19,1.23-.28Z"/><polygon class="cls-16" points="552.76 280.23 552.87 280.6 552.58 280.56 552.76 280.23"/><path class="cls-5" d="m155.52,348.78c-.01.49-.03.98-.04,1.48.01-.49.03-.98.04-1.48Z"/><path class="cls-5" d="m154.18,348.23c.41.15.82.29,1.24.44-.41-.15-.82-.29-1.24-.44Z"/><path class="cls-2" d="m297.14,573.75c-.28.4-.55.8-.83,1.2.28-.4.55-.8.83-1.2Z"/><path class="cls-17" d="m264.35,398.03c-.04-.36-.08-.72-.12-1.07.04.36.08.72.12,1.07Z"/><path class="cls-17" d="m259.57,443.14c-.1-.41-.19-.81-.29-1.22.1.41.19.81.29,1.22Z"/><path class="cls-4" d="m452.02,396.79c.35-.35.7-.7,1.04-1.04-.35.35-.7.7-1.04,1.04Z"/><path class="cls-5" d="m228.36,374.78l.93,1.13-.93-1.13Z"/><path class="cls-17" d="m673.16,389.91c-.03.38-.05.76-.08,1.14.03-.38.05-.76.08-1.14Z"/><path class="cls-16" d="m182.45,375.59c-.43-.16-.86-.32-1.29-.48.43.16.86.32,1.29.48Z"/><path class="cls-11" d="m107.11,594.34c-.36-.4-.73-.81-1.09-1.21.36.4.73.81,1.09,1.21Z"/><path class="cls-7" d="m263.38,391.02l-.1-1.09.1,1.09Z"/><path class="cls-16" d="m455.04,599.39l1.13-.49-1.13.49Z"/><path class="cls-7" d="m481.24,314.95c-.32-.03-.63-.07-.94-.15,0-.3-.06-.59-.17-.87.21-.04.42-.07.64-.09.16.37.31.74.47,1.1Z"/><path class="cls-5" d="m232.51,379.76c.3.33.61.67.91,1-.3-.33-.61-.67-.91-1Z"/><path class="cls-17" d="m139.08,317.67c.39.09.78.18,1.17.27-.39-.09-.78-.18-1.17-.27Z"/><path class="cls-4" d="m480.38,331.52c.29.12.59.23.89.33l.04.08c-.02.33-.03.67-.05,1l-.11.09c-.26-.5-.52-1-.77-1.51Z"/><path class="cls-5" d="m225.22,385.01c-.44-.26-.88-.52-1.32-.78.44.26.88.52,1.32.78Z"/><path class="cls-7" d="m674.07,381.88c-.03.39-.06.79-.09,1.18.03-.39.06-.79.09-1.18Z"/><path class="cls-5" d="m396.19,382.16c.36-.03.72-.07,1.07-.1-.36.03-.72.07-1.07.1Z"/><path class="cls-16" d="m371.32,684.84l-1.12.08,1.12-.08Z"/><path class="cls-12" d="m18.26,249.11c-.56-1.33-.89-1.75-.87-2.16.03-.58.32-1.15.49-1.73.43.34,1.09.61,1.22,1.03.13.44-.27,1.03-.84,2.86Z"/><path class="cls-12" d="m1.29,368.88c1.04-.37,1.44-.59,1.86-.64.24-.03.72.25.72.37-.03.39-.22.77-.35,1.16-.38-.15-.75-.3-2.23-.89Z"/><path class="cls-17" d="m.27,324.98c.03-.7.05-1.39.08-2.09-.03.7-.05,1.39-.08,2.09Z"/><path class="cls-12" d="m93.09,580.41c-.35-.44-.71-.87-1.06-1.31.35.44.71.87,1.06,1.31Z"/><path class="cls-17" d="m8.27,266.99c.09-.4.19-.8.28-1.2-.09.4-.19.8-.28,1.2Z"/><path class="cls-17" d="m8.48,423.1c-.08-.38-.16-.77-.24-1.15.08.38.16.77.24,1.15Z"/><path class="cls-17" d="m6.17,412.01c-.05-.39-.1-.78-.16-1.16.05.39.1.78.16,1.16Z"/><path class="cls-16" d="m2.05,304.04l.07-1.13-.07,1.13Z"/><path class="cls-17" d="m6.28,275.99l.3-1.22-.3,1.22Z"/><path class="cls-7" d="m4.13,400.04c-.04-.41-.09-.83-.13-1.24.04.41.09.83.13,1.24Z"/><path class="cls-12" d="m82.11,568.32c-.37-.43-.73-.86-1.1-1.29.37.43.73.86,1.1,1.29Z"/><path class="cls-12" d="m90.11,577.14c-.37-.36-.75-.73-1.12-1.09.37.36.75.73,1.12,1.09Z"/><path class="cls-12" d="m91.08,578.15c-.34-.36-.69-.71-1.03-1.07.34.36.69.71,1.03,1.07Z"/><path class="cls-12" d="m92.07,579.17c-.34-.35-.69-.7-1.03-1.05.34.35.69.7,1.03,1.05Z"/><path class="cls-2" d="m6.64,414.24c-.11-.44-.23-.87-.34-1.31.11.44.23.87.34,1.31Z"/><path class="cls-17" d="m1.2,375.98c-.03-.37-.06-.73-.09-1.1.03.37.06.73.09,1.1Z"/><path class="cls-17" d="m2.17,386c-.04-.38-.08-.76-.12-1.14.04.38.08.76.12,1.14Z"/><path class="cls-17" d="m3.8,290.14c.1-.42.21-.84.31-1.26-.1.42-.21.84-.31,1.26Z"/><path class="cls-16" d="m2.33,300.04c.05-.41.09-.82.14-1.23-.05.41-.09.82-.14,1.23Z"/><path class="cls-17" d="m3.31,293.01c.05-.39.09-.78.14-1.17-.05.39-.09.78-.14,1.17Z"/><path class="cls-16" d="m.1,360.02c-.03-.39-.06-.77-.1-1.16.03.39.06.77.1,1.16Z"/><path class="cls-3" d="m265.41,266.34c2.59-.48,5.26-1.59,7.76-1.29,3.9.46,7.7,1.82,11.5,2.93.88.25,1.61,1.01,2.43,1.55-6.08,7.25-20.62,7.56-29.44.66.86-2.76,3.63-2.33,5.56-3.24.73-.2,1.46-.4,2.19-.59Z"/><path class="cls-10" d="m308.73,225.85c-4.07,3.31-8.91,4.64-13.64,4.94-5.06.32-9.62-2.33-14.5-4.45,6.35-6.45,20.57-6.56,28.14-.49Z"/><path class="cls-10" d="m362.06,263.7c9.04-5.55,17.67-5.66,26.38-.23-5.13,6.99-18.79,7.2-26.38.23Z"/><path class="cls-10" d="m349.71,208.27c8.49-4.71,16.38-4.3,24.38.06-6.28,6.06-15.74,6.14-24.38-.06Z"/><path class="cls-10" d="m322.26,173.95c-.66-.56-1.31-1.13-1.97-1.69.87-.47,1.74-.95,2.61-1.42,1.16-.12,2.69.88,3.24-1.07l-.05.06c1.12-.05,2.54.79,3.07-1.03l-.05.06c3.08,0,6.16,0,9.25,0l-.06-.06c.66,1.93,2.21.91,3.42,1.02.18-.08.34-.06.49.06.73.29,1.47.58,2.2.87l.06-.05c-.04,1.15-.08,2.29-.12,3.44l.02-.05c-.72.32-1.44.64-2.15.96l-.46.07c-3.07-.4-5.92.2-8.52,1.89-.33.02-.66,0-.99-.07-1.9-1.54-4.05-2.16-6.47-1.82l-.28.04-.24-.14c-.99-.35-1.99-.7-2.98-1.05Z"/><path class="cls-1" d="m436.05,231.34c-1.89-.49-3.81-.89-5.67-1.49-1.05-.34-2-.99-3.51-1.76,3.33-2.39,6.8-2.87,10.2-3.55.44,0,.87,0,1.31-.01,3.18.65,6.33,1.38,9.51,3.32-2.97,2.89-6.45,2.72-9.48,3.68-.79-.06-1.58-.13-2.37-.19Z"/><path class="cls-1" d="m460.13,256.4c-1.61-.04-3.21-.07-4.82-.11l-1.09-.31c-1.55-.48-3.11-.97-4.73-1.47,3.61-4.48,8.72-4.68,15.96-.65-1,1.56-2.47,2.05-4.16,2.15-.39.13-.77.26-1.16.39Z"/><path class="cls-1" d="m411.08,289.34c-2.18-.59-4.36-1.18-6.84-1.85,5.45-4.66,8.46-4.75,15.51-.34-2.79.87-5.08,1.59-7.36,2.3-.44-.04-.87-.07-1.31-.11Z"/><path class="cls-1" d="m389.2,199.02c-1.02-.47-2.04-.94-3.16-1.47,4.02-3.46,6.34-3.53,10.48-.41-1.59,2.17-3.9,2.08-6.18,2.11-.38-.08-.77-.15-1.15-.23Z"/><path class="cls-1" d="m324.06,247.52c-2.9,3.44-4.61,3.58-8.08.64,2.59-2.34,5.21-2.03,8.08-.64Z"/><path class="cls-12" d="m386.15,350.79c-1.56-.5-3.13-1-5.36-1.71,3.17-1.97,6.11-.1,8.68-1.02-.39.65-.79,1.29-1.18,1.94l-.04.03-1.2.88c-.31,0-.61-.04-.91-.11Z"/><path class="cls-1" d="m333.23,176.99c2.61-1.68,5.45-2.29,8.52-1.89-2.42.82-4.85,1.63-7.28,2.45-.42-.19-.83-.37-1.25-.56Z"/><path class="cls-1" d="m338.36,168.85c-3.08,0-6.16,0-9.25,0,1.27-.46,2.55-.92,3.82-1.38.53,0,1.06-.02,1.59-.03,1.28.47,2.55.93,3.83,1.4Z"/><path class="cls-4" d="m444.29,361.1l2.67-.47.31.36c-.01.98-.02,1.97-.03,2.95-.34.06-.67.13-1.01.19-1.1-.72-2.32-1.37-1.94-3.04Z"/><path class="cls-1" d="m344.35,174.13c.04-1.15.08-2.29.12-3.44.96.44,1.91.88,3.63,1.68-1.78.84-2.76,1.3-3.75,1.76Z"/><path class="cls-1" d="m325.77,175.1c2.42-.34,4.57.28,6.47,1.82-.67.01-1.33.02-2,.03-1.49-.62-2.98-1.23-4.47-1.85Z"/><path class="cls-12" d="m459.41,305.99c.14.06.37.09.42.2.35.75.66,1.51.98,2.26-.28.07-.78.26-.81.2-.35-.65-.62-1.34-.91-2.02-.03-.28.08-.5.32-.65Z"/><path class="cls-2" d="m330.23,176.96c.67-.01,1.33-.02,2-.03.33.06.66.09.99.07.42.19.83.37,1.25.56-1.41-.2-2.83-.4-4.24-.59Z"/><path class="cls-12" d="m344.33,407.93c-.02.28-.02.57-.01.85-.57.23-1.14.45-1.71.68.32-.56.64-1.12.95-1.68.26.03.51.08.76.16Z"/><path class="cls-1" d="m329.17,168.8c-.53,1.82-1.95.98-3.07,1.03,1.02-.34,2.05-.69,3.07-1.03Z"/><path class="cls-1" d="m326.15,169.77c-.55,1.95-2.08.95-3.24,1.07,1.08-.36,2.16-.71,3.24-1.07Z"/><path class="cls-1" d="m322.26,173.95c.99.35,1.99.7,2.98,1.05-.99-.35-1.99-.7-2.98-1.05Z"/><path class="cls-1" d="m341.72,169.81c-1.21-.12-2.76.91-3.42-1.02,1.14.34,2.28.68,3.42,1.02Z"/><path class="cls-17" d="m265.41,266.34c-.73.2-1.46.4-2.19.59.73-.2,1.46-.4,2.19-.59Z"/><path class="cls-1" d="m344.41,170.74c-.73-.29-1.47-.58-2.2-.87.73.29,1.47.58,2.2.87Z"/><path class="cls-1" d="m342.22,175.03c.72-.32,1.44-.64,2.15-.96-.72.32-1.44.64-2.15.96Z"/><path class="cls-16" d="m474.67,273.18c-.13-.75-.26-1.5-.38-2.25.13.75.26,1.5.38,2.25Z"/><path class="cls-17" d="m436.05,231.34c.79.06,1.58.13,2.37.19-.79-.06-1.58-.13-2.37-.19Z"/><path class="cls-17" d="m206.63,263.14c-.1-.42-.2-.83-.31-1.25.1.42.2.83.31,1.25Z"/><path class="cls-6" d="m460.13,256.4c.39-.13.77-.26,1.16-.39-.39.13-.77.26-1.16.39Z"/><path class="cls-6" d="m454.22,255.97l1.09.31-1.09-.31Z"/><path class="cls-16" d="m209.49,300.08c.27-.33.54-.66.81-.99-.27.33-.54.66-.81.99Z"/><path class="cls-17" d="m199.2,270.93l-.16,1.14.16-1.14Z"/><path class="cls-16" d="m438.39,224.52c-.44,0-.87,0-1.31.01.44,0,.87,0,1.31-.01Z"/><path class="cls-16" d="m389.2,199.02c.38.08.77.15,1.15.23-.38-.08-.77-.15-1.15-.23Z"/><path class="cls-17" d="m198.59,273.77c-.11.4-.21.81-.32,1.21.11-.4.21-.81.32-1.21Z"/><path class="cls-17" d="m197.19,279.92c-.1.41-.2.82-.3,1.22.1-.41.2-.82.3-1.22Z"/><path class="cls-2" d="m334.53,167.45c-.53,0-1.06.02-1.59.03.53,0,1.06-.02,1.59-.03Z"/><path class="cls-16" d="m469.15,279.92c-.04.37-.08.75-.12,1.12.04-.37.08-.75.12-1.12Z"/><path class="cls-17" d="m468.2,284.94c-.08.39-.16.79-.24,1.18.08-.39.16-.79.24-1.18Z"/><path class="cls-7" d="m212.48,316.04c-.08-.36-.16-.72-.24-1.08.19.24.39.47.55.74.02.04-.2.22-.3.34Z"/><path class="cls-16" d="m181.16,340.08c.39.05.79.09,1.18.14-.39-.05-.79-.09-1.18-.14Z"/><path class="cls-16" d="m411.08,289.34c.44.04.87.07,1.31.11-.44-.04-.87-.07-1.31-.11Z"/><path class="cls-2" d="m415.41,330.72c-.39.08-.77.16-1.16.24.21-.27.42-.54.63-.81.18.19.35.38.53.57Z"/><path class="cls-12" d="m351.47,390.4c-1,1.26-2,2.52-3,3.77-.08-1.54-.15-3.08-.23-4.69,1.6-.66,2.64-.66,3.23.92Z"/><path class="cls-12" d="m348.49,394.2c-.7,1.06-1.4,2.12-2.1,3.18.01-1.52-.97-3.69,2.1-3.18Z"/><path class="cls-12" d="m346.15,397.97c-.28.4-.56.8-.84,1.2.28-.4.56-.8.84-1.2Z"/><path class="cls-12" d="m347.36,412.62c.3.11.6.21.91.32.04.32.12.63.24.93-.38-.42-.76-.83-1.14-1.25Z"/><path class="cls-12" d="m374.19,355.68c-.28.2-.56.39-.84.59.28-.2.56-.39.84-.59Z"/><path class="cls-15" d="m314.15,606c-6.6-4.7-9.59-11.66-11.93-19.04-.04-1.34-.08-2.67-.12-4.01-.01-1.33-.03-2.66-.04-3.98.07-3.48.6-6.84,2.05-10.05,1.47-3.25,2.79-6.57,4.18-9.86,1.74-1.73,3.39-3.58,5.25-5.18,6.09-5.22,12.97-8.45,21.23-7.95,1.83.11,3.66.09,5.49.13.39.27.79.54,1.18.81,2.27.71,4.53,1.41,6.8,2.12.66.33,1.32.66,1.98.99h.02c.35.32.71.64,1.06.95v-.02c-.22,2.46,1.53,2.03,2.98,2.03h0c-.19,2.06-.51,4.01-1.17,6.08-1.03,3.26-1.21,7.26-.29,10.54.84,3,3.62,5.46,6.09,8.91.76-3.16,1.36-5.71,2.15-8.97,1.27,1.35,2.2,2.37,3.15,3.36,1,1.04,2.01,2.07,3.02,3.11.41,7.32-.06,14.47-3.96,20.97-.24.4-.64.7-.96,1.05-2.42-.18-2.03,1.55-2.04,3h0c-.33.33-.66.68-.99,1.03,0,0,.02-.02.02-.02-.34.34-.68.68-1.01,1.02,0,0,.02-.02.02-.02-.34.34-.67.68-1.01,1.02l.02-.02c-.34.34-.68.67-1.02,1.01l.02-.02c-.34.34-.68.68-1.02,1.02l.02-.02c-.35.33-.7.67-1.06,1-.68.6-1.36,1.21-2.03,1.81-1.81-.94-3.5-1.86-3.11-4.46.06-.4-1.28-1.02-1.97-1.53,1.28-1.32,2.55-2.65,3.83-3.97,2.1-.73,4.21-1.46,6.82-2.36-1.43-3.72-.67-7.37-2.57-10.54-.05-.5-.11-1-.16-1.5.35-.73.89-1.42,1-2.18.13-.9.22-2.15-.28-2.69-.49-.53-1.74-.36-2.65-.5v.03c-.01-.91-.01-1.82-.01-2.35-2.92-1.04-5.39-1.91-7.86-2.79-.06-.27-.08-.54-.06-.82.03-1.76.09-3.51.07-5.27-.02-1.95-1.07-2.9-3.01-2.9-.16-.14-.21-.32-.14-.52-.28-.49-.56-.99-.84-1.48-.16-.14-.22-.31-.16-.51-.3-.49-.59-.97-.89-1.46l.02.03c-.37-.66-.73-1.32-1.1-1.99l.04.05c.05-1.52.59-3.39-2.11-2.95l.06.04c-.33-.37-.67-.75-1-1.12l.07.05c-.42-.34-.84-.67-1.26-1.01h-.36c-.42.3-.85.62-1.27.94l.03-.03c-.34.35-.67.7-1.01,1.05l.03-.04-1.01,1.17c-.03.26-.01.53.05.79-.39.3-.77.61-1.16.91-.8-1.21-1.55-1.02-1.88.25-.24.9-.07,1.9-.08,2.85h0c-.34.66-.67,1.32-1.01,1.99h0c-.31.73-.62,1.47-.93,2.2.08.29.02.56-.17.8-.25.71-.51,1.42-.76,2.14,0,0,.05-.06.05-.06-1.66,2.72-1.7,6.8-.1,9.87l-.03-.05c.36.68.71,1.37,1.07,2.05.34.53.68,1.06,1.02,1.59l1.02,1.33-.04-.05c.35.33.71.67,1.06,1l-.03-.02c.33.36.66.72.98,1.08l-.04-.04c.36.33.72.66,1.08.99l-.03-.03c.34.36.67.72,1.01,1.08l.02-.1c-.29,1.4.12,2.31,1.7,2.18,1.28-.11,2.55-.37,3.83-.57.13.31.26.61.38.92-1.69,1.23-3.38,2.45-5.3,3.85,1.71.7,2.91,1.19,4.11,1.68l-.04.93c-1.67.42-3.33.85-5,1.27-.3-.33-.6-.66-.9-.99-.04-1.48.48-3.39-2.19-2.86,0,0,.05,0,.05,0-.32-.37-.64-.74-.95-1.12,0,0,.03.04.03.04.06-1.52.56-3.35-2.09-2.97h.06c-.31-.36-.62-.74-.92-1.12v.02c-.35-.66-.71-1.33-1.07-1.99l.04.04c-.36-.68-.72-1.37-1.08-2.05-1.35-2.65-2.7-5.3-4.18-8.19-3.79,4.67-4.55,9.31-2.9,14.43.25.77.23,1.63.34,2.45.3,1.57-1.34,3.98,1.87,4.29-.71,3.3,1.39,5.97,2.03,8.97.33,1.3.66,2.6.99,3.9-1-.62-2-1.24-3-1.87-.35-.33-.7-.65-1.05-.98v.02c.23-2.51-1.56-2.03-3.02-2.03Z"/><path class="cls-14" d="m367.21,575.96c-1.01-1.04-2.02-2.06-3.02-3.11-.95-1-1.88-2.01-3.15-3.36-.78,3.26-1.39,5.81-2.15,8.97-2.47-3.45-5.25-5.91-6.09-8.91-.92-3.28-.74-7.28.29-10.54.65-2.07.98-4.02,1.17-6.09,7.74,5.76,12.15,13.38,12.95,23.03Z"/><path class="cls-14" d="m347.12,602.82c.69.52,2.03,1.13,1.97,1.53-.39,2.59,1.3,3.52,3.11,4.46-3.96,2.36-8,4.46-12.81,4.22-3.74-.01-7.47-.03-11.21-.04-2.62.29-4.8-.85-6.94-2.13-.33-1.3-.66-2.6-.99-3.9,2.49-.41,4.97-.83,7.46-1.24.22-.01.4.07.54.25.86,2.37,1.2,2.48,3.96,1.25l1.04.21c1.17,2.09,1.61,2.11,3.01.17l1.07-.27c3.52,1.14,3.92,1.02,4.9-1.4h-.01c.66-.35,1.32-.72,1.98-1.08l-.05.04c.64-.39,1.29-.78,1.93-1.17l-.08.05c.39-.32.78-.63,1.17-.95h-.04Z"/><path class="cls-2" d="m308.28,559.06c-1.39,3.29-2.71,6.61-4.18,9.86-1.45,3.21-1.98,6.58-2.05,10.05-1.12-.07-2.25-.14-3.33-.2-.91-2.24-.41-4.05.5-5.89,1.45-2.92,2.9-5.71,3.29-9.2.22-2.02,3.1-3.74,4.78-5.59.33.32.66.65.99.97Z"/><path class="cls-10" d="m328.17,612.99c3.74.01,7.47.03,11.21.04-3.59,1.3-7.78,1.28-11.21-.04Z"/><path class="cls-2" d="m302.1,582.95c.04,1.34.08,2.67.12,4.01-1.33.03-2-.51-2-1.94,0-1.35.46-2.09,1.87-2.06Z"/><path class="cls-10" d="m314.15,606c1.46,0,3.25-.48,3.02,2.03l-3.02-2.03Z"/><path class="cls-14" d="m360.25,600.98c0-1.46-.38-3.18,2.04-3l-2.04,3Z"/><path class="cls-14" d="m354.27,552.93c-1.45,0-3.21.43-2.99-2.03,1,.68,1.99,1.36,2.99,2.03Z"/><path class="cls-14" d="m350.21,549.97c-.66-.33-1.32-.66-1.98-.99.66.33,1.32.66,1.98.99Z"/><path class="cls-14" d="m341.43,546.87c-.39-.27-.79-.54-1.18-.81.39.27.79.54,1.18.81Z"/><path class="cls-14" d="m351.29,550.92c-.35-.31-.71-.63-1.06-.94.35.31.71.63,1.06.94Z"/><path class="cls-14" d="m359.27,602.01c.33-.35.66-.69.99-1.04-.33.35-.66.69-.99,1.04Z"/><path class="cls-14" d="m358.27,603.01c.34-.34.68-.68,1.01-1.02-.34.34-.68.68-1.01,1.02Z"/><path class="cls-14" d="m357.28,604.02c.34-.34.67-.68,1.01-1.02-.34.34-.67.68-1.01,1.02Z"/><path class="cls-14" d="m356.27,605.01c.34-.34.68-.67,1.02-1.01-.34.34-.68.67-1.02,1.01Z"/><path class="cls-14" d="m355.27,606.01c.34-.34.68-.68,1.02-1.02-.34.34-.68.68-1.02,1.02Z"/><path class="cls-14" d="m354.23,607c.35-.33.7-.67,1.06-1-.35.33-.7.67-1.06,1Z"/><path class="cls-10" d="m317.17,608.01c.35.33.7.65,1.05.98-.35-.33-.7-.65-1.05-.98Z"/><path class="cls-1" d="m80.56,364.23c-.22-.95-.43-1.9-.59-2.57-1.41-1.6-4.08.63-4.75-2.08h9.76c-2.08,2.19-3.25,3.43-4.42,4.66Z"/><path class="cls-1" d="m79.23,365.96c.43-.58.86-1.16,1.29-1.74-.43.58-.86,1.16-1.29,1.74Z"/><path class="cls-1" d="m74.32,371.1c.35-.35.71-.7,1.06-1.05-.35.35-.71.7-1.06,1.05Z"/><path class="cls-5" d="m72.27,359.13c-.36-.02-.72-.05-1.09-.07.36.02.72.05,1.09.07Z"/><path class="cls-1" d="m78.25,367c.33-.35.65-.7.98-1.05-.33.35-.65.7-.98,1.05Z"/><path class="cls-1" d="m77.27,368.04c.34-.35.67-.71,1.01-1.06-.34.35-.67.71-1.01,1.06Z"/><path class="cls-1" d="m76.3,369.08c.34-.36.67-.72,1.01-1.08-.34.36-.67.72-1.01,1.08Z"/><path class="cls-1" d="m75.33,370.1c.34-.36.68-.72,1.02-1.08-.34.36-.68.72-1.02,1.08Z"/><path class="cls-17" d="m463.43,313.46l-1.27.4,1.27-.4Z"/><path class="cls-12" d="m165.91,372.32c1.19,1.29,1.78,1.93,2.51,2.73q-2.85.73-2.51-2.73Z"/><path class="cls-16" d="m465.23,319.96c.38.12.76.24,1.14.35-.38-.12-.76-.24-1.14-.35Z"/><path class="cls-12" d="m447.24,363.94c.01-.98.02-1.97.03-2.95h4.3c.83,1.49.96,2.53-.69,2.88-.97.2-1.98.17-2.98.24l-.36.03-.3-.2Z"/><path class="cls-17" d="m454.31,369.02c.16-.42.32-.83.48-1.25.1.35.2.7.3,1.05-.26.05-.52.12-.78.2Z"/><path class="cls-14" d="m335.77,575.23v13.1c5.14-4.25,9.9-7.44,8.73-14.2.23-.09.47-.15.71-.18,2.47.88,4.94,1.75,7.86,2.79v2.35c-.67-.41-1.33-.82-2.17-1.34-.42.71-.86,1.2-1.04,1.78-2.06,6.72-6.08,12.23-10.64,17.43-.85.67-1.63,1.5-2.58,1.97-1.02.51-2.21.68-3.32,1-.4-.64-.81-1.28-1.22-1.92,1.67-.42,3.33-.85,5-1.27l.04-.93c-1.2-.49-2.4-.98-4.11-1.68,1.92-1.39,3.61-2.62,5.3-3.85-.13-.31-.26-.61-.38-.92-1.27.19-2.54.46-3.83.57-1.58.13-1.99-.79-1.7-2.18.21-.94.41-1.89.62-2.83.13-1.34.26-2.69.39-4.03.09-.17.15-.36.16-.56.14-.81.29-1.63.43-2.44.1-.95.2-1.9.3-2.86.48.07.96.13,1.45.2Z"/><path class="cls-10" d="m327.69,605.72c-2.49.41-4.97.83-7.46,1.24-.64-3-2.74-5.67-2.03-8.97l.27-.25c1.58,1.41,3.16,2.81,4.74,4.22.35.3.69.6,1.04.89.6.39,1.2.78,1.8,1.18.55.56,1.09,1.12,1.64,1.68Z"/><path class="cls-14" d="m350.94,598.85c1.97-4.12,4.41-8.08,4.25-12.9,1.9,3.17,1.14,6.82,2.57,10.54-2.61.9-4.71,1.63-6.82,2.36Z"/><path class="cls-14" d="m344.34,572.88c-.71-2.64-1.42-5.28-2.12-7.92,1.94,0,2.99.94,3.01,2.9.02,1.76-.04,3.51-.07,5.27-.28-.06-.55-.15-.81-.25Z"/><path class="cls-14" d="m355.03,584.44c-.65-1.79-1.29-3.59-1.94-5.38.92.14,2.17-.03,2.65.5.5.54.41,1.8.28,2.69-.11.76-.65,1.46-1,2.18Z"/><path class="cls-14" d="m325.44,571.95c-.03,2.32-.07,4.64-.1,6.97-1.6-3.07-1.56-7.15.1-9.87,0,.97,0,1.94,0,2.9Z"/><path class="cls-14" d="m330.21,558.88c-.65,1.03-1.31,2.07-1.96,3.1.01-.96-.16-1.96.08-2.85.33-1.26,1.08-1.46,1.88-.25Z"/><path class="cls-10" d="m316.34,593.7c.6.77,1.19,1.54,1.79,2.31.12.58.23,1.16.35,1.74l-.27.25c-3.2-.31-1.57-2.72-1.87-4.29Z"/><path class="cls-14" d="m339.14,559.07c-.7-.98-1.41-1.96-2.11-2.95,2.7-.44,2.16,1.43,2.11,2.95Z"/><path class="cls-14" d="m328.15,593.06c-.7-.99-1.39-1.98-2.09-2.97,2.65-.38,2.15,1.45,2.09,2.97Z"/><path class="cls-14" d="m331.21,597.02l-2.19-2.86c2.67-.53,2.15,1.38,2.19,2.86Z"/><path class="cls-14" d="m325.21,589c-.36-.66-.72-1.33-1.08-1.99.36.66.72,1.33,1.08,1.99Z"/><path class="cls-14" d="m324.16,587.05c-.36-.68-.72-1.37-1.08-2.05.36.68.72,1.37,1.08,2.05Z"/><path class="cls-14" d="m325.31,578.87c.36.68.71,1.37,1.07,2.05-.36-.68-.71-1.37-1.07-2.05Z"/><path class="cls-14" d="m326.15,566.97c-.25.71-.51,1.42-.76,2.14.25-.71.51-1.42.76-2.14Z"/><path class="cls-14" d="m327.25,563.97l-.93,2.21.93-2.21Z"/><path class="cls-14" d="m328.26,561.97c-.34.67-.67,1.33-1.01,2,.34-.67.67-1.33,1.01-2Z"/><path class="cls-14" d="m340.2,561.01c-.37-.66-.73-1.32-1.1-1.99.37.66.73,1.32,1.1,1.99Z"/><path class="cls-14" d="m334.54,554.07c-.42.32-.85.63-1.27.95.42-.32.85-.63,1.27-.95Z"/><path class="cls-14" d="m336.16,555.09c-.42-.34-.84-.67-1.26-1.01.42.34.84.67,1.26,1.01Z"/><path class="cls-14" d="m333.29,554.99c-.34.35-.67.7-1.01,1.05.34-.35.67-.7,1.01-1.05Z"/><path class="cls-14" d="m336.17,555.98c-.01-.31-.04-.62-.08-.93.33.37.67.75,1,1.12-.32-.01-.62-.07-.92-.19Z"/><path class="cls-14" d="m332.32,556.01l-1.01,1.17,1.01-1.17Z"/><path class="cls-14" d="m341.07,562.44c-.3-.49-.59-.97-.89-1.46.3.49.59.97.89,1.46Z"/><path class="cls-14" d="m342.07,564.44c-.28-.49-.56-.99-.84-1.48.28.49.56.99.84,1.48Z"/><path class="cls-17" d="m344.34,572.88c.27.1.54.18.81.25-.02.28,0,.55.06.82-.25.03-.48.09-.71.18-.05-.42-.11-.83-.16-1.25Z"/><path class="cls-14" d="m327.39,582.5l1.02,1.33-1.02-1.33Z"/><path class="cls-14" d="m328.37,583.78c.35.33.71.67,1.06,1-.35-.33-.71-.67-1.06-1Z"/><path class="cls-14" d="m329.41,584.76c.33.36.66.72.98,1.08-.33-.36-.66-.72-.98-1.08Z"/><path class="cls-14" d="m330.35,585.8c.36.33.72.66,1.08.99-.36-.33-.72-.66-1.08-.99Z"/><path class="cls-14" d="m331.4,586.77c.34.36.67.72,1.01,1.08-.34-.36-.67-.72-1.01-1.08Z"/><path class="cls-14" d="m326.12,590.11c-.31-.38-.62-.75-.92-1.13.31.38.62.75.92,1.13Z"/><path class="cls-14" d="m329.07,594.14c-.32-.37-.64-.74-.95-1.12.32.37.64.74.95,1.12Z"/><path class="cls-10" d="m337.31,607.32l4.9-1.4c-.98,2.42-1.38,2.53-4.9,1.4Z"/><path class="cls-10" d="m329.23,605.87c.98.45,1.97.9,2.95,1.35-2.76,1.23-3.1,1.12-3.96-1.25.33-.03.67-.07,1-.1Z"/><path class="cls-10" d="m333.23,607.43c1,.06,2.01.11,3.01.17-1.4,1.95-1.84,1.92-3.01-.17Z"/><path class="cls-10" d="m342.2,605.93c.66-.36,1.32-.73,1.98-1.09-.66.36-1.32.73-1.98,1.09Z"/><path class="cls-10" d="m344.13,604.88c.64-.39,1.29-.78,1.93-1.17-.64.39-1.29.78-1.93,1.17Z"/><path class="cls-10" d="m345.98,603.76c-.02-.33.06-.64.23-.92.32.04.63.03.95-.03-.39.32-.78.63-1.17.95Z"/><path class="cls-17" d="m335.77,575.23c-.48-.07-.96-.13-1.45-.2.09-.91.18-1.83.3-3.03,2.12.83,1.5,2.07,1.14,3.23Z"/></g></svg>