<?xml version="1.0" encoding="utf-8"?>
<svg xmlns="http://www.w3.org/2000/svg" viewBox="0 0 24 24" width="96" height="96">
  <path d="M2 5C0.895 5 0 5.895 0 7L0 16C0 17.105 0.895 18 2 18L4 18C4 19.657 5.343 21 7 21C8.657 21 10 19.657 10 18L15 18L16 18C16 19.657 17.343 21 19 21C20.657 21 22 19.657 22 18C22.138125 18 22.272119 17.985615 22.402344 17.958984C23.313916 17.772568 24 16.966875 24 16L24 13L21.275391 7.5527344C21.106391 7.2137344 20.761813 7 20.382812 7L17 7C17 5.895 16.105 5 15 5L2 5 z M 17 8.75L19.917969 8.75L22.042969 13L17 13L17 8.75 z M 3.5 9L4.5 9C4.775 9 5 9.225 5 9.5C5 9.775 4.775 10 4.5 10L4 10L4 11L4.5 11C4.775 11 5 11.225 5 11.5C5 11.775 4.775 12 4.5 12L4 12L4 13.5C4 13.775 3.775 14 3.5 14C3.225 14 3 13.775 3 13.5L3 9.5C3 9.225 3.225 9 3.5 9 z M 6.5 9L7.5 9C7.775 9 8 9.225 8 9.5C8 9.775 7.775 10 7.5 10L7 10L7 13.5C7 13.775 6.775 14 6.5 14C6.225 14 6 13.775 6 13.5L6 9.5C6 9.225 6.225 9 6.5 9 z M 9.5 9L10.5 9C10.775 9 11 9.225 11 9.5C11 9.775 10.775 10 10.5 10L10 10L10 11L10.5 11C10.775 11 11 11.225 11 11.5C11 11.775 10.775 12 10.5 12L10 12L10 13L10.5 13C10.775 13 11 13.225 11 13.5C11 13.775 10.775 14 10.5 14L9.5 14C9.225 14 9 13.775 9 13.5L9 9.5C9 9.225 9.225 9 9.5 9 z M 12.5 9L13.5 9C13.775 9 14 9.225 14 9.5C14 9.775 13.775 10 13.5 10L13 10L13 11L13.5 11C13.775 11 14 11.225 14 11.5C14 11.775 13.775 12 13.5 12L13 12L13 13L13.5 13C13.775 13 14 13.225 14 13.5C14 13.775 13.775 14 13.5 14L12.5 14C12.225 14 12 13.775 12 13.5L12 9.5C12 9.225 12.225 9 12.5 9 z M 7 16.75C7.689 16.75 8.25 17.311 8.25 18C8.25 18.689 7.689 19.25 7 19.25C6.311 19.25 5.75 18.689 5.75 18C5.75 17.311 6.311 16.75 7 16.75 z M 19 16.75C19.689 16.75 20.25 17.311 20.25 18C20.25 18.689 19.689 19.25 19 19.25C18.311 19.25 17.75 18.689 17.75 18C17.75 17.311 18.311 16.75 19 16.75 z" fill="#FFFFFF" />
</svg>